# Blender 4.5.3 LTS
# www.blender.org
mtllib Lemon.mtl
o lemon__body_m
v 0.393788 0.163009 -41.805588
v 3.174377 2.594901 -40.810200
v 4.315281 0.216476 -41.002888
v 1.759766 3.581327 -40.632298
v 0.326713 3.914819 -40.710350
v -1.475941 3.340256 -41.035149
v -3.202404 1.455518 -41.275318
v -3.575392 -1.183494 -41.706268
v -2.039048 -3.214730 -41.629520
v -0.851006 -4.732347 -41.972111
v 1.038616 -4.831228 -41.896580
v 3.253300 -3.603386 -41.749958
v 4.262880 -1.805675 -41.242607
v 2.380133 5.444246 -39.876659
v 0.265150 6.144976 -39.982700
v 3.920440 4.808762 -40.066578
v -2.984779 -5.503507 -40.717148
v -5.118143 -4.894734 -40.478687
v -1.628582 -6.662552 -40.996250
v 0.349519 -7.501316 -40.985798
v 2.334653 -7.156395 -40.920731
v 5.282253 -4.757068 -40.773739
v 6.222333 -2.666336 -40.364140
v 6.028002 1.413602 -40.444321
v 5.293396 3.379986 -40.302097
v -6.484895 -5.980204 -38.876049
v -4.251337 -7.225278 -39.038002
v -2.345341 -8.893216 -39.234310
v 0.318315 -9.919696 -39.310410
v 3.790097 -5.974634 -40.958069
v 2.921453 -9.330711 -39.206867
v 6.490816 -0.430672 -40.122780
v 7.800794 2.028849 -38.592579
v 8.226134 -0.525472 -38.368290
v 6.838704 4.370144 -38.463341
v -2.903824 -10.559098 -37.274990
v -5.225019 -8.499467 -37.178261
v 0.255534 -11.698518 -37.433620
v 4.913311 -7.674304 -39.019779
v 3.290041 -10.905498 -37.298729
v 7.988602 -3.292099 -38.582500
v 5.040901 6.243744 -38.155689
v -6.170201 -10.321137 -35.237499
v -3.439160 -12.162908 -35.224350
v 0.051553 -13.183847 -35.557461
v 6.914056 -6.052461 -38.865101
v 5.676842 -8.891484 -36.896828
v 3.278389 -13.113647 -34.970840
v 9.172866 -3.748852 -36.653061
v 8.043441 -6.981237 -36.784290
v 3.017968 7.076970 -37.758087
v -8.658119 -13.223119 -32.712479
v -4.675607 -15.851667 -32.773739
v 0.036474 -16.996717 -32.975967
v 6.820764 -10.625028 -34.755440
v 4.613890 -16.542187 -32.637737
v 9.360576 -0.652272 -36.482990
v 9.267522 -8.116687 -34.524071
v 10.715449 -3.939180 -34.129410
v -1.679517 5.488953 -40.167828
v 0.266682 7.905651 -37.844707
v 0.013443 -20.868618 -29.583639
v -5.868100 -19.658497 -29.534889
v 9.057220 -13.481809 -32.453880
v 5.909261 -19.979738 -29.534889
v 9.006125 2.431146 -36.590759
v 10.692790 -0.781039 -33.838699
v 12.356410 -10.134589 -32.223370
v 14.395909 -5.253052 -31.746029
v -3.133233 4.303787 -40.304058
v 11.270740 -16.768417 -29.582600
v -0.054896 -24.636307 -25.093531
v 7.200323 -23.421347 -25.161112
v 7.885549 4.975673 -36.484699
v 9.858506 2.414364 -33.656300
v 14.833540 -0.624300 -31.379339
v 15.391760 -12.051139 -29.399529
v 17.903290 -6.581731 -28.897289
v -4.836385 3.368366 -40.281448
v -5.729798 1.543921 -40.451469
v 13.757159 -19.744907 -24.962099
v -7.144577 -23.348358 -24.686861
v 5.791837 7.159770 -36.127010
v 18.603600 -14.606069 -24.593649
v 21.352909 -7.999340 -24.429949
v 19.038759 -0.503246 -28.500139
v -6.428703 -0.445999 -40.301769
v -6.107213 -2.626225 -40.566940
v -13.336980 -19.703308 -24.555799
v 3.431265 8.130996 -35.547829
v 22.679279 -0.620066 -24.576899
v 18.020399 5.517533 -28.019918
v 13.910729 3.996583 -31.131769
v -8.483565 -0.460291 -38.589661
v -8.064794 -3.316266 -38.793819
v -18.453070 -14.538249 -24.753109
v -10.999209 -16.483627 -29.393400
v 21.273369 6.655649 -24.113390
v 15.241570 10.884010 -27.946869
v 11.988400 8.209685 -31.264450
v 8.626637 5.438463 -33.790829
v -7.389564 -6.700173 -37.106838
v -21.305950 -7.715453 -24.609819
v -15.306410 -11.983978 -29.256510
v 18.335489 13.229060 -24.271980
v 11.216800 15.359470 -27.928110
v 8.888115 11.518050 -31.120770
v 6.559997 7.825443 -33.721519
v -22.179029 -0.243839 -24.450630
v -17.729059 -6.391788 -29.015850
v -12.031070 -10.029169 -32.384010
v 13.317500 18.262281 -24.156979
v 3.748227 8.921276 -33.725330
v 4.865609 13.392900 -31.054430
v -8.852928 -8.200468 -34.823521
v -20.122759 6.547345 -24.294209
v -18.523319 -0.219860 -28.703838
v -14.048619 -5.407337 -32.185898
v 5.908586 17.938322 -27.639278
v 7.011757 21.432781 -24.083109
v 0.241287 9.026763 -35.607979
v -10.401410 -4.397722 -34.704147
v -9.451568 -3.836798 -36.856869
v -17.415699 12.994241 -24.271610
v -17.173979 5.508176 -28.480009
v -14.527040 -0.466823 -31.924570
v 0.153271 18.932941 -27.590448
v 0.072252 22.467741 -24.057558
v -2.283514 7.192641 -38.193420
v -10.582860 -0.742517 -34.494129
v -9.937551 -0.509884 -36.730659
v -13.058340 18.085611 -24.156580
v -14.713870 10.779470 -28.342230
v -13.458369 4.043973 -31.608068
v -5.576259 17.725471 -27.639229
v -6.731128 20.949932 -23.842880
v -4.269393 5.897289 -38.378460
v -2.731600 8.310255 -36.096970
v -9.774680 2.511128 -34.181309
v -8.896785 2.556933 -36.423187
v -7.581270 2.161978 -38.510139
v -11.565470 8.154291 -31.430529
v -10.943550 15.072910 -27.843529
v 0.160257 10.106562 -33.716618
v -8.562574 5.429284 -34.100479
v -7.548700 5.117715 -36.064251
v -6.418775 4.437094 -38.236259
v -8.488341 11.621051 -31.363359
v -6.184089 8.027803 -34.173798
v -5.108542 7.001751 -36.317657
v -4.477710 13.811331 -31.188969
v 0.162295 14.464150 -31.026178
v -3.332901 9.723545 -33.976181
v 6.383910 8.161721 37.847870
v 6.838979 4.975045 40.290230
v 8.652184 6.389975 37.836399
v 4.884663 6.510970 40.298328
v 9.032070 11.644698 35.217960
v 4.767192 14.493828 35.051910
v 3.556145 10.486628 37.865070
v 8.448879 2.555446 40.281868
v 6.765852 1.990978 42.736668
v 5.490060 3.927437 42.741970
v 12.346990 9.211116 35.342060
v 10.711420 3.314055 37.824390
v 2.667015 8.189112 40.311371
v 3.709823 5.337474 42.747280
v 11.703020 15.166789 32.582699
v 5.970737 18.516218 32.219330
v -0.111539 15.707678 35.233490
v 0.071838 11.587898 37.870968
v 3.502235 2.348616 46.828579
v 4.291157 1.131312 46.827049
v 14.841479 4.699208 35.497601
v 15.965059 11.726948 32.852760
v 1.943566 6.488956 42.757111
v 0.122525 8.969499 40.315849
v 2.264809 3.229460 46.830811
v -3.390966 10.638428 37.868988
v -4.927465 14.451828 35.495899
v 2.374220 0.172347 48.769268
v 1.570315 1.263126 48.881149
v 2.902186 -0.687650 48.784687
v 4.725420 -0.241951 46.842789
v 1.488817 3.709643 47.191040
v 0.156774 7.004321 42.760468
v -2.406305 8.296194 40.314240
v -6.145037 8.961058 37.858349
v -9.008349 12.132937 35.486427
v 0.286547 -0.257420 49.562260
v 1.017447 1.876107 48.811440
v 4.513147 -1.654946 46.845058
v 7.435143 -0.193262 42.750839
v 0.195104 3.981437 47.375851
v -1.619080 6.558994 42.759117
v -4.396316 7.157147 40.305630
v -8.365535 6.642493 37.844379
v -12.262380 8.964375 35.444530
v 0.262538 2.101099 48.999237
v 4.338389 -2.936322 46.850719
v 7.756529 -2.705955 42.755859
v 9.280869 -0.172697 40.294491
v -0.905030 3.903481 47.191399
v -2.987464 5.876739 42.751930
v -6.553335 5.216918 40.296360
v -0.463554 1.944133 48.844257
v 6.746294 -4.757455 42.768028
v 9.461649 -3.486942 40.301788
v 2.163406 -2.192587 48.788860
v 11.765659 -0.153257 37.836361
v -1.689917 3.518243 46.832390
v -5.235392 4.175978 42.746700
v -8.051032 2.640892 40.286659
v -10.358910 3.433763 37.830639
v -0.889699 1.314969 48.883881
v 8.182332 -6.233448 40.319099
v 11.818769 -4.506268 37.846470
v 16.431520 -0.235740 35.443718
v 19.414589 6.098730 32.976627
v -3.176301 2.546692 46.831219
v -6.344606 2.048278 42.740349
v -14.639489 4.485204 35.409420
v -1.941506 0.185918 48.665421
v 10.178800 -8.144358 37.870148
v 16.002520 -5.921657 35.335430
v 20.885059 -0.412457 32.857758
v 18.700390 13.625548 29.682009
v 13.352810 17.601837 29.615709
v -3.844166 1.169409 46.829277
v -2.072159 -1.471465 48.786308
v -4.165283 -0.197597 46.842789
v -0.912735 -2.228786 48.789120
v 0.551017 -2.374378 48.937229
v 15.067909 20.227268 24.689760
v 7.750331 23.920578 24.700071
v 6.845933 21.098738 29.629690
v -6.895172 -0.154001 42.750839
v -6.542458 -2.433341 42.755859
v -3.944165 -1.615382 46.845058
v 0.286515 -4.610634 46.862900
v 1.662398 -4.594584 46.862690
v 3.356628 -3.949876 46.857430
v 21.066130 15.539119 24.586899
v -0.233318 25.508917 24.713932
v -8.757255 -0.135554 40.294491
v -8.318264 -3.009014 40.301788
v 2.495541 -7.185738 42.792850
v 4.499856 -6.139955 42.782078
v 22.971319 7.170484 29.555559
v 25.591810 7.878318 24.387680
v -8.133088 24.332848 24.780182
v -0.266988 22.612488 29.643110
v -11.271339 -0.115573 37.836361
v 5.597512 -7.650661 40.338470
v 24.143280 -0.421188 29.586948
v 27.093079 -0.537977 24.668070
v -15.610020 21.251999 24.733849
v -7.338062 21.708267 29.444239
v -0.311787 19.821259 32.589470
v -15.741960 -0.123160 35.359688
v 20.176189 -7.319263 32.827930
v 22.977280 -8.343049 29.458839
v 25.379320 -9.426640 24.392719
v -21.477579 15.493408 24.715139
v -13.907880 18.633818 29.651979
v -6.487719 18.261948 33.135971
v 7.070598 -9.697721 37.896229
v 13.577450 -10.512582 35.262978
v 16.952030 -12.835431 32.651558
v 19.535700 -14.518360 29.672609
v 22.208649 -16.299341 24.757910
v -24.484480 7.945429 24.317770
v -18.965439 13.771129 29.630119
v -11.919510 15.299228 33.128048
v 3.068902 -8.964911 40.352928
v 9.853443 -13.316881 35.285931
v 3.836709 -11.374501 37.915409
v 12.650510 -16.941601 32.670448
v 14.469580 -19.750252 29.720890
v 16.469969 -22.209421 24.806747
v -26.443579 -0.026474 24.540930
v -22.103479 6.886170 29.411659
v -16.223789 11.280218 33.056530
v 0.271324 -7.270896 42.793869
v 0.256973 -9.283490 40.356770
v 5.280575 -15.445421 35.312241
v 0.235806 -11.949302 37.922348
v 6.726645 -19.510101 32.703888
v 7.803422 -23.000422 29.748358
v 8.852891 -26.247311 24.831738
v -25.278919 -8.627613 24.571419
v -23.655979 -0.046937 29.522058
v -1.089310 -4.378371 46.860989
v -1.951438 -6.906051 42.789970
v -2.551542 -8.829186 40.351540
v 0.134193 -16.229851 35.321159
v -3.359478 -11.373032 37.915409
v 0.017349 -20.504181 32.714748
v 0.277122 -24.142002 29.756517
v 0.227602 -27.541132 24.838358
v -21.835169 -16.432411 24.757910
v -22.745399 -7.792131 29.550039
v -18.959249 5.522993 32.998840
v -4.933074 -15.341672 35.312241
v -5.072152 -7.646295 40.338470
v -6.580105 -9.702690 37.896229
v -6.534031 -19.296522 32.703888
v -7.226527 -22.674011 29.748358
v -8.367229 -25.791792 24.831738
v -19.573620 -14.451020 29.671309
v -15.985060 -21.489361 24.806749
v -20.241219 -0.127101 32.889370
v -8.978488 -13.048841 35.357319
v -7.055010 -5.597552 40.319099
v -9.108609 -7.092833 37.870148
v -11.378429 -16.380131 32.818520
v -13.886749 -19.115431 29.720890
v -19.617580 -6.745520 32.778320
v -16.633780 -12.595760 32.621639
v -15.145740 -5.264137 35.311520
v -12.854549 -9.838741 35.248558
v -10.714650 -3.788818 37.846470
v -5.531576 -4.491675 42.768028
v -3.312617 -2.898589 46.850719
v -3.952442 -6.125939 42.782078
v -2.329853 -3.920594 46.857430
v -1.692259 -3.116829 -40.929138
v -2.353707 -1.789548 -40.772690
v -1.203228 -2.201278 -42.141018
v -0.024507 -2.753826 -42.171101
v -0.481726 -3.691899 -40.936958
v -2.663849 -0.497377 -40.598721
v -1.858038 -1.272530 -42.029987
v -0.742475 -1.722100 -42.534100
v 0.103344 -2.123910 -42.539570
v 1.037802 -2.123910 -42.478920
v 1.124106 -2.737278 -42.207180
v 1.112639 -3.530423 -40.809238
v -2.378793 0.794793 -40.386120
v -2.051367 -0.181764 -41.795967
v -1.337985 -1.011617 -42.373360
v 0.169568 -1.249214 -42.969837
v 1.350304 -1.259793 -42.822491
v 1.870642 -1.734085 -42.284389
v 2.142825 -2.064080 -41.990879
v 2.326772 -2.856002 -40.629139
v -1.555000 1.831037 -40.179749
v -1.803476 0.931741 -41.685360
v -1.555033 -0.109562 -42.246460
v -0.593001 -0.320431 -42.903049
v 0.700856 -0.045469 -42.524799
v 2.050273 -0.366923 -42.420700
v 2.441988 -1.019887 -42.072781
v 2.846256 -1.258664 -41.817390
v 3.192948 -2.040270 -40.450390
v -0.402672 2.322044 -40.013119
v -1.088181 1.844380 -41.599598
v -1.351474 0.803450 -42.165501
v -0.374046 0.801995 -42.504848
v 0.676170 1.306684 -42.300327
v 1.750255 0.775266 -42.188320
v 2.645705 -0.070486 -41.994247
v 3.095701 -0.141560 -41.730721
v 3.475569 -0.497377 -40.200291
v 0.684639 2.589827 -39.865948
v -0.048254 2.140759 -41.535500
v -0.774061 1.531694 -42.047390
v 0.065121 1.691361 -41.950569
v 0.992447 1.774018 -41.780029
v 1.844235 1.531691 -41.877468
v 2.426986 0.791682 -41.841610
v 2.830995 0.961303 -41.582230
v 3.162993 1.045515 -39.988819
v 2.331814 2.094753 -39.876080
v 1.053892 2.263924 -41.480068
v 2.110133 1.844380 -41.487110
v -9.491339 -29.220949 -4.148176
v -17.786539 -25.187078 -4.130210
v -9.049909 -27.993429 -11.826281
v -9.557146 -29.532499 3.469323
v -24.532379 -18.758600 -4.217563
v -16.927580 -24.107269 -11.784451
v -18.010099 -25.384079 3.468058
v -8.337104 -25.949360 -17.974941
v -9.300655 -29.248798 11.083018
v -17.615700 -24.869509 10.819359
v -28.131449 -9.790005 -4.226626
v -23.344189 -17.959040 -11.982341
v -24.932259 -18.908560 3.447581
v -15.566279 -22.346050 -17.910791
v -24.595419 -18.556829 11.184659
v -13.336980 -19.703308 -24.555799
v -7.144577 -23.348358 -24.686861
v -9.047785 -28.005520 18.430779
v -17.204029 -23.658030 18.373758
v -23.721249 -17.832560 18.535839
v -26.790070 -9.404211 -11.988520
v -21.465429 -16.658880 -18.211950
v -28.297190 -9.655042 11.148160
v -28.667120 -9.862677 3.401469
v -18.453070 -14.538249 -24.753109
v -27.429779 -9.332010 18.421709
v -15.985060 -21.489361 24.806749
v -8.367229 -25.791792 24.831738
v -21.835169 -16.432411 24.757910
v -25.278919 -8.627613 24.571419
v -24.656719 -8.769113 -18.215090
v -21.305950 -7.715453 -24.609819
v -28.623980 0.007440 18.395700
v -29.465389 -0.012062 11.127830
v -26.443579 -0.026474 24.540930
v -25.588699 -0.186298 -18.216749
v -22.179029 -0.243839 -24.450630
v -27.785450 -0.123499 -11.991899
v -26.481760 8.583897 18.230530
v -24.484480 7.945429 24.317770
v -27.304890 8.769741 11.028290
v -29.765079 -0.042214 3.502288
v -20.122759 6.547345 -24.294209
v -25.514149 8.282115 -11.801670
v -23.358320 7.554924 -18.015909
v -26.916979 8.738942 -4.057920
v -29.160830 -0.084292 -4.231653
v -21.477579 15.493408 24.715139
v -23.201069 16.690050 18.531639
v -27.491899 8.866704 3.538077
v -23.838049 17.056759 11.219211
v -17.415699 12.994241 -24.271610
v -23.558769 16.985880 -4.258147
v -22.230360 16.186399 -12.043749
v -20.246429 14.883890 -18.292089
v -15.610020 21.251999 24.733849
v -16.815529 22.928230 18.543821
v -24.044640 17.235090 3.549353
v -17.231800 23.567650 11.224291
v -13.058340 18.085611 -24.156580
v -17.028360 23.382229 -4.256787
v -16.263390 22.366949 -12.042628
v -15.014859 20.666090 -18.291239
v -8.133088 24.332848 24.780182
v -8.718173 26.353489 18.225151
v -17.358549 23.741499 3.489905
v -8.890967 27.276850 11.231940
v -6.731128 20.949932 -23.842880
v -8.753692 27.139109 -4.143099
v -8.370222 25.954149 -11.852589
v -7.735042 23.978199 -18.031467
v -0.233318 25.508917 24.713932
v -0.193113 27.747959 18.520172
v -8.923897 27.501589 3.377715
v -0.137453 28.968719 11.198010
v 0.072252 22.467741 -24.057558
v -0.012181 29.084969 -4.263102
v 0.004142 27.836899 -11.932519
v 0.025732 25.742208 -18.055958
v 7.750331 23.920578 24.700071
v 8.417743 25.986679 18.508852
v -0.059222 29.304140 3.366369
v 8.790802 27.267149 11.189760
v 7.011757 21.432781 -24.083109
v 8.861888 27.731869 -4.265152
v 8.516759 26.562469 -12.047929
v 7.926243 24.583679 -18.293348
v 15.067909 20.227268 24.689760
v 16.326790 22.072479 18.503302
v 8.913071 27.779709 3.376023
v 17.007759 23.031189 11.189220
v 13.317500 18.262281 -24.156979
v 17.020309 23.749199 -4.265372
v 16.322880 22.726210 -12.048248
v 15.150470 21.006969 -18.293760
v 21.066130 15.539119 24.586899
v 22.773790 16.635710 18.450499
v 17.175140 23.771719 3.401350
v 23.704399 17.213850 11.139721
v 18.335489 13.229060 -24.271980
v 23.646299 17.454340 -4.265575
v 22.630880 16.645189 -12.048618
v 20.955330 15.319390 -18.294289
v 25.591810 7.878318 24.387680
v 27.120770 8.579233 18.367649
v 23.937078 17.560699 3.401982
v 27.964619 8.827695 11.118040
v 21.273369 6.655649 -24.113390
v 27.588120 8.974718 -4.184824
v 26.363979 8.520967 -12.008260
v 24.370399 7.789660 -18.295029
v 27.093079 -0.537977 24.668070
v 28.904469 -0.650688 18.492390
v 28.021460 9.081145 3.368729
v 29.888090 -0.786107 11.189580
v 22.679279 -0.620066 -24.576899
v 29.466940 -0.767662 -4.265503
v 28.139309 -0.723848 -12.048750
v 25.990309 -0.686644 -18.294609
v 25.379320 -9.426640 24.392719
v 27.420439 -10.413311 18.285990
v 30.015759 -0.821101 3.439680
v 28.280140 -10.968131 11.061688
v 21.352909 -7.999340 -24.429949
v 27.877810 -10.794809 -4.178182
v 26.590010 -10.200479 -11.907630
v 24.526770 -9.335513 -18.104570
v 22.208649 -16.299341 24.757910
v 23.917280 -18.272169 18.467699
v 28.453419 -11.136490 3.429309
v 24.519119 -19.447020 11.051589
v 18.603600 -14.606069 -24.593649
v 24.193560 -19.203960 -4.201839
v 23.016989 -18.244539 -11.931241
v 21.170689 -16.777899 -18.127430
v 16.469969 -22.209421 24.806747
v 17.787840 -24.488979 18.505758
v 24.749840 -19.682400 3.364933
v 18.284199 -25.681280 11.077128
v 13.757159 -19.744907 -24.962099
v 18.007759 -25.352819 -4.195433
v 17.085850 -24.197590 -11.926741
v 15.668799 -22.359169 -18.124952
v 8.852891 -26.247311 24.831738
v 9.622492 -28.723700 18.623358
v 18.461960 -25.900370 3.320320
v 9.950634 -29.915789 11.281798
v 7.200323 -23.421347 -25.161112
v 9.744419 -29.549410 -4.242470
v 9.220509 -28.268459 -12.032781
v 8.432287 -26.183868 -18.286091
v 0.227602 -27.541132 24.838358
v 0.217107 -30.025789 18.627367
v 10.026870 -30.142790 3.346830
v 0.203030 -31.165619 11.283009
v -0.054896 -24.636307 -25.093531
v 0.028376 -31.303200 -4.242126
v -0.008271 -29.899290 -12.032451
v -0.038638 -27.982250 -18.285801
v -8.367229 -25.791792 24.831738
v -9.047785 -28.005520 18.430779
v 0.123710 -31.803370 3.453447
v -9.300655 -29.248798 11.083018
v -7.144577 -23.348358 -24.686861
v -9.491339 -29.220949 -4.148176
v -9.049909 -27.993429 -11.826281
v -8.337104 -25.949360 -17.974941
v -9.557146 -29.532499 3.469323
vn 0.0548 0.1467 -0.9877
vn 0.1310 0.2464 -0.9603
vn 0.2719 0.0880 -0.9583
vn 0.1017 0.3052 -0.9468
vn 0.0900 0.3073 -0.9473
vn -0.0763 0.2994 -0.9511
vn -0.2055 0.2133 -0.9551
vn -0.2467 -0.0137 -0.9690
vn -0.2152 -0.1408 -0.9664
vn -0.1664 -0.1214 -0.9786
vn 0.0665 -0.1896 -0.9796
vn 0.2466 -0.0685 -0.9667
vn 0.3151 0.0842 -0.9453
vn 0.1702 0.5498 -0.8178
vn 0.0685 0.5620 -0.8243
vn 0.2211 0.4931 -0.8414
vn -0.3624 -0.3860 -0.8483
vn -0.3384 -0.3227 -0.8839
vn -0.3112 -0.3974 -0.8633
vn -0.0157 -0.4674 -0.8839
vn 0.2270 -0.4324 -0.8727
vn 0.4848 -0.2346 -0.8426
vn 0.5657 -0.0294 -0.8241
vn 0.4953 0.1135 -0.8613
vn 0.3702 0.3369 -0.8657
vn -0.5321 -0.5008 -0.6827
vn -0.4561 -0.5559 -0.6949
vn -0.3879 -0.5642 -0.7288
vn -0.0431 -0.6558 -0.7537
vn 0.3661 -0.3837 -0.8478
vn 0.3503 -0.6126 -0.7085
vn 0.5592 0.0117 -0.8290
vn 0.7559 0.2017 -0.6228
vn 0.7868 0.0274 -0.6165
vn 0.6283 0.4717 -0.6186
vn -0.3935 -0.6442 -0.6559
vn -0.4914 -0.5775 -0.6519
vn -0.0469 -0.7435 -0.6671
vn 0.5110 -0.5580 -0.6539
vn 0.3717 -0.6729 -0.6396
vn 0.7672 -0.1194 -0.6302
vn 0.3816 0.7123 -0.5890
vn -0.4250 -0.4857 -0.7639
vn -0.3148 -0.5807 -0.7508
vn -0.0431 -0.6537 -0.7555
vn 0.6404 -0.3995 -0.6560
vn 0.5402 -0.5852 -0.6048
vn 0.2954 -0.5850 -0.7553
vn 0.8401 -0.1292 -0.5268
vn 0.6884 -0.4264 -0.5868
vn 0.2408 0.8009 -0.5483
vn -0.3935 -0.4483 -0.8026
vn -0.2562 -0.5398 -0.8019
vn -0.0274 -0.5944 -0.8037
vn 0.4558 -0.4773 -0.7513
vn 0.2329 -0.5381 -0.8101
vn 0.8785 0.0626 -0.4735
vn 0.5911 -0.3210 -0.7399
vn 0.7087 -0.0802 -0.7009
vn -0.1840 0.5325 -0.8262
vn 0.0548 0.8256 -0.5615
vn -0.0235 -0.7098 -0.7040
vn -0.2778 -0.6534 -0.7042
vn 0.3932 -0.4206 -0.8177
vn 0.2447 -0.6577 -0.7124
vn 0.8686 0.2524 -0.4265
vn 0.7378 0.1018 -0.6673
vn 0.5051 -0.2623 -0.8222
vn 0.5618 -0.0724 -0.8241
vn -0.3036 0.4839 -0.8208
vn 0.4523 -0.5228 -0.7225
vn -0.0235 -0.8451 -0.5341
vn 0.2874 -0.7939 -0.5358
vn 0.7458 0.5148 -0.4228
vn 0.7414 0.2367 -0.6279
vn 0.5438 0.0821 -0.8352
vn 0.5988 -0.3424 -0.7240
vn 0.6685 -0.1564 -0.7271
vn -0.3912 0.3951 -0.8312
vn -0.4911 0.2465 -0.8355
vn 0.5263 -0.6535 -0.5440
vn -0.3111 -0.7886 -0.5304
vn 0.4639 0.7731 -0.4325
vn 0.7042 -0.4421 -0.5556
vn 0.7961 -0.2308 -0.5594
vn 0.6651 0.0469 -0.7453
vn -0.5321 0.0959 -0.8412
vn -0.5108 -0.1194 -0.8514
vn -0.5063 -0.6647 -0.5494
vn 0.2703 0.8599 -0.4329
vn 0.8178 0.0196 -0.5752
vn 0.6249 0.2292 -0.7463
vn 0.5186 0.1898 -0.8337
vn -0.7283 0.1038 -0.6774
vn -0.6973 -0.2155 -0.6836
vn -0.6807 -0.4538 -0.5751
vn -0.4522 -0.5442 -0.7067
vn 0.7697 0.2585 -0.5837
vn 0.5418 0.3736 -0.7530
vn 0.4597 0.3071 -0.8333
vn 0.6501 0.4210 -0.6325
vn -0.6087 -0.4971 -0.6184
vn -0.7975 -0.1955 -0.5708
vn -0.5887 -0.3716 -0.7178
vn 0.6569 0.4536 -0.6022
vn 0.3739 0.5324 -0.7595
vn 0.3095 0.4525 -0.8364
vn 0.4146 0.6316 -0.6551
vn -0.8235 0.0822 -0.5614
vn -0.6808 -0.1545 -0.7160
vn -0.5091 -0.3054 -0.8047
vn 0.4600 0.6499 -0.6050
vn 0.2367 0.7082 -0.6652
vn 0.1684 0.5286 -0.8320
vn -0.5540 -0.3700 -0.7458
vn -0.7843 0.2875 -0.5497
vn -0.6972 0.0764 -0.7128
vn -0.5832 -0.1135 -0.8043
vn 0.1880 0.6247 -0.7579
vn 0.2326 0.7623 -0.6040
vn 0.0743 0.8724 -0.4831
vn -0.7187 -0.1645 -0.6756
vn -0.8075 -0.2425 -0.5377
vn -0.6886 0.4441 -0.5732
vn -0.6599 0.2546 -0.7069
vn -0.5817 0.0862 -0.8088
vn -0.0098 0.6648 -0.7469
vn -0.0352 0.8002 -0.5987
vn -0.2758 0.7568 -0.5926
vn -0.7792 0.1116 -0.6167
vn -0.8766 0.1135 -0.4677
vn -0.4655 0.6572 -0.5927
vn -0.5659 0.3936 -0.7245
vn -0.5402 0.2271 -0.8103
vn -0.2074 0.6536 -0.7279
vn -0.2524 0.7708 -0.5850
vn -0.4325 0.6634 -0.6106
vn -0.2563 0.8081 -0.5303
vn -0.7227 0.3036 -0.6209
vn -0.8138 0.3678 -0.4500
vn -0.6950 0.3387 -0.6342
vn -0.4754 0.3385 -0.8120
vn -0.3877 0.5599 -0.7322
vn 0.0764 0.7128 -0.6972
vn -0.6088 0.4287 -0.6675
vn -0.6790 0.5420 -0.4951
vn -0.5770 0.5340 -0.6181
vn -0.3443 0.4813 -0.8061
vn -0.4208 0.5715 -0.7045
vn -0.4814 0.6948 -0.5343
vn -0.1605 0.5695 -0.8062
vn 0.0313 0.5692 -0.8216
vn -0.1858 0.6729 -0.7160
vn 0.3839 0.5072 0.7716
vn 0.5719 0.5269 0.6288
vn 0.4482 0.4208 0.7887
vn 0.4774 0.6184 0.6242
vn 0.2854 0.4419 0.8505
vn 0.2232 0.5012 0.8360
vn 0.2893 0.5630 0.7741
vn 0.6946 0.3287 0.6399
vn 0.7493 0.3541 0.5596
vn 0.6126 0.5676 0.5500
vn 0.3482 0.3425 0.8726
vn 0.5465 0.2566 0.7972
vn 0.3463 0.6750 0.6515
vn 0.5065 0.6708 0.5417
vn 0.3244 0.5297 0.7837
vn 0.2289 0.5869 0.7766
vn 0.0372 0.5302 0.8471
vn 0.0215 0.6089 0.7930
vn 0.5678 0.4973 0.6559
vn 0.6751 0.3385 0.6555
vn 0.4364 0.1937 0.8787
vn 0.4309 0.4153 0.8012
vn 0.3700 0.7399 0.5618
vn 0.0157 0.7358 0.6771
vn 0.5150 0.6110 0.6012
vn -0.2290 0.5597 0.7965
vn -0.1703 0.4755 0.8631
vn 0.4779 0.2918 0.8285
vn 0.4425 0.3994 0.8029
vn 0.5831 0.0254 0.8120
vn 0.7696 0.0999 0.6306
vn 0.4307 0.6323 0.6440
vn 0.0216 0.8105 0.5853
vn -0.2837 0.6887 0.6672
vn -0.3698 0.4754 0.7983
vn -0.2952 0.3852 0.8743
vn -0.0000 0.0509 0.9987
vn 0.3170 0.4148 0.8529
vn 0.7634 -0.1116 0.6362
vn 0.8043 0.1487 0.5753
vn 0.0313 0.7458 0.6655
vn -0.3051 0.7590 0.5751
vn -0.4427 0.6131 0.6543
vn -0.4795 0.3680 0.7967
vn -0.3834 0.2797 0.8802
vn 0.0294 0.4462 0.8944
vn 0.6305 -0.3681 0.6834
vn 0.7845 -0.1291 0.6065
vn 0.7531 0.1369 0.6435
vn -0.3584 0.6737 0.6463
vn -0.4613 0.6842 0.5649
vn -0.5948 0.4814 0.6438
vn -0.3797 0.4051 0.8317
vn 0.6089 -0.5012 0.6148
vn 0.7324 -0.1332 0.6678
vn 0.3190 -0.4207 0.8493
vn 0.5930 0.0881 0.8004
vn -0.4930 0.5810 0.6476
vn -0.6300 0.5302 0.5674
vn -0.7068 0.2878 0.6462
vn -0.5599 0.2271 0.7968
vn -0.4208 0.3483 0.8376
vn 0.5304 -0.4913 0.6909
vn 0.5816 -0.1312 0.8028
vn 0.4794 0.0430 0.8766
vn 0.5459 0.2211 0.8081
vn -0.5578 0.4599 0.6909
vn -0.7704 0.2953 0.5651
vn -0.4499 0.1624 0.8782
vn -0.5303 0.1742 0.8297
vn 0.4345 -0.4012 0.8064
vn 0.4758 -0.1469 0.8672
vn 0.6067 0.0215 0.7946
vn 0.5795 0.5306 0.6186
vn 0.4187 0.6633 0.6203
vn -0.7086 0.2604 0.6558
vn -0.4814 -0.2309 0.8455
vn -0.7529 0.0626 0.6551
vn -0.2445 -0.5242 0.8157
vn -0.0000 -0.5245 0.8514
vn 0.4886 0.7603 0.4281
vn 0.2974 0.8531 0.4286
vn 0.2683 0.7383 0.6189
vn -0.8141 0.0392 0.5794
vn -0.7768 -0.2426 0.5811
vn -0.7437 -0.2055 0.6361
vn -0.0724 -0.7415 0.6671
vn 0.1566 -0.7243 0.6714
vn 0.4033 -0.6461 0.6480
vn 0.6908 0.5949 0.4110
vn 0.0215 0.9060 0.4227
vn -0.7492 0.0391 0.6612
vn -0.7155 -0.2209 0.6628
vn 0.2057 -0.7855 0.5837
vn 0.4074 -0.7072 0.5779
vn 0.7364 0.2820 0.6150
vn 0.8644 0.3207 0.3872
vn -0.2466 0.8748 0.4169
vn 0.0254 0.7919 0.6101
vn -0.5944 0.0313 0.8036
vn 0.3558 -0.6549 0.6667
vn 0.7991 0.0039 0.6012
vn 0.9194 0.0020 0.3932
vn -0.5012 0.7538 0.4249
vn -0.2230 0.7570 0.6142
vn 0.0352 0.6262 0.7788
vn -0.4789 0.0196 0.8776
vn 0.5870 -0.1996 0.7846
vn 0.7618 -0.2507 0.5973
vn 0.8684 -0.2719 0.4146
vn -0.7567 0.5006 0.4204
vn -0.4344 0.6398 0.6340
vn -0.1859 0.5833 0.7907
vn 0.2933 -0.5357 0.7918
vn 0.3872 -0.3364 0.8585
vn 0.4819 -0.3801 0.7895
vn 0.6353 -0.4555 0.6236
vn 0.7378 -0.5030 0.4502
vn -0.8723 0.2797 0.4010
vn -0.6459 0.4365 0.6263
vn -0.3427 0.4779 0.8088
vn 0.2173 -0.7067 0.6734
vn 0.2680 -0.4402 0.8570
vn 0.1859 -0.5753 0.7965
vn 0.3325 -0.4870 0.8077
vn 0.4442 -0.6106 0.6556
vn 0.5280 -0.7078 0.4693
vn -0.9118 0.0548 0.4070
vn -0.7647 0.2484 0.5946
vn -0.4776 0.3347 0.8123
vn -0.0450 -0.8082 0.5871
vn -0.0196 -0.7301 0.6831
vn 0.1508 -0.4915 0.8577
vn -0.0059 -0.6025 0.7981
vn 0.1665 -0.5524 0.8168
vn 0.2232 -0.7048 0.6734
vn 0.2718 -0.8369 0.4752
vn -0.8769 -0.2427 0.4150
vn -0.8008 0.0470 0.5971
vn -0.1998 -0.7346 0.6484
vn -0.2212 -0.7771 0.5892
vn -0.2173 -0.6970 0.6833
vn -0.0058 -0.5207 0.8537
vn -0.1917 -0.5712 0.7981
vn -0.0117 -0.5788 0.8154
vn -0.0176 -0.7357 0.6770
vn -0.0274 -0.8816 0.4711
vn -0.7241 -0.5323 0.4384
vn -0.7591 -0.2152 0.6143
vn -0.5714 0.1898 0.7984
vn -0.1723 -0.4915 0.8536
vn -0.4306 -0.5989 0.6752
vn -0.3581 -0.4873 0.7965
vn -0.1995 -0.5516 0.8099
vn -0.2565 -0.7008 0.6656
vn -0.3091 -0.8335 0.4579
vn -0.6068 -0.4659 0.6440
vn -0.5107 -0.7337 0.4481
vn -0.5988 0.0293 0.8003
vn -0.2977 -0.4230 0.8558
vn -0.6131 -0.4250 0.6660
vn -0.4874 -0.3484 0.8006
vn -0.3307 -0.4873 0.8082
vn -0.4268 -0.6246 0.6540
vn -0.5614 -0.1702 0.8098
vn -0.4483 -0.3642 0.8163
vn -0.4579 -0.1468 0.8768
vn -0.3878 -0.3056 0.8696
vn -0.5688 -0.1759 0.8034
vn -0.6671 -0.4637 0.5830
vn -0.5888 -0.4733 0.6552
vn -0.4559 -0.6673 0.5890
vn -0.4150 -0.6265 0.6598
vn -0.6063 -0.3912 -0.6923
vn -0.8654 -0.1312 -0.4836
vn -0.5187 -0.2604 -0.8143
vn -0.1741 -0.4247 -0.8884
vn -0.1723 -0.6051 -0.7773
vn -0.9314 0.1565 -0.3287
vn -0.7551 -0.0157 -0.6554
vn -0.2448 0.0920 -0.9652
vn -0.0958 0.0156 -0.9953
vn 0.1701 -0.0842 -0.9818
vn 0.2191 -0.4246 -0.8784
vn 0.2701 -0.6458 -0.7142
vn -0.8570 0.4950 -0.1429
vn -0.8331 0.2307 -0.5026
vn -0.4012 0.2152 -0.8904
vn -0.1662 0.0723 -0.9834
vn 0.2527 0.0098 -0.9675
vn 0.3761 -0.0020 -0.9266
vn 0.5045 -0.2894 -0.8135
vn 0.5758 -0.5033 -0.6443
vn -0.6047 0.7964 0.0117
vn -0.7754 0.5130 -0.3682
vn -0.4017 0.3448 -0.8484
vn -0.3694 0.2932 -0.8818
vn 0.0979 0.4814 -0.8710
vn 0.2426 0.3032 -0.9215
vn 0.3446 0.2212 -0.9123
vn 0.6630 -0.0724 -0.7451
vn 0.8157 -0.2446 -0.5242
vn -0.2956 0.9552 0.0117
vn -0.5267 0.7813 -0.3349
vn -0.2524 0.4714 -0.8450
vn -0.1724 0.4975 -0.8501
vn 0.1037 0.2779 -0.9550
vn -0.0607 0.3074 -0.9496
vn 0.1604 0.3541 -0.9213
vn 0.7537 0.2427 -0.6108
vn 0.9489 0.1213 -0.2915
vn 0.0802 0.9958 -0.0431
vn -0.2074 0.8706 -0.4461
vn -0.1076 0.5204 -0.8471
vn 0.1779 0.2327 -0.9561
vn -0.1858 0.2231 -0.9569
vn -0.1057 0.2310 -0.9672
vn 0.0020 0.3483 -0.9374
vn 0.6907 0.5361 -0.4853
vn 0.8667 0.4696 -0.1682
vn 0.5657 0.8183 -0.1018
vn 0.0979 0.8632 -0.4952
vn 0.4540 0.7690 -0.4501
vn -0.3291 -0.9381 -0.1077
vn -0.5675 -0.8160 -0.1096
vn -0.3246 -0.9132 -0.2464
vn -0.3344 -0.9424 0.0098
vn -0.8202 -0.5598 -0.1174
vn -0.5521 -0.7928 -0.2583
vn -0.5694 -0.8219 0.0157
vn -0.3245 -0.8699 -0.3714
vn -0.3387 -0.9338 0.1155
vn -0.5671 -0.8155 0.1154
vn -0.9627 -0.2407 -0.1233
vn -0.7964 -0.5440 -0.2641
vn -0.8220 -0.5695 0.0058
vn -0.5327 -0.7481 -0.3956
vn -0.8114 -0.5745 0.1075
vn -0.5063 -0.6647 -0.5493
vn -0.3112 -0.7886 -0.5303
vn -0.3346 -0.9057 0.2602
vn -0.5537 -0.7923 0.2563
vn -0.7850 -0.5657 0.2525
vn -0.9371 -0.2348 -0.2582
vn -0.7510 -0.5124 -0.4166
vn -0.9629 -0.2544 0.0900
vn -0.9686 -0.2485 -0.0098
vn -0.6807 -0.4538 -0.5750
vn -0.9376 -0.2545 0.2368
vn -0.5107 -0.7338 0.4481
vn -0.3092 -0.8335 0.4579
vn -0.7242 -0.5324 0.4384
vn -0.8769 -0.2427 0.4149
vn -0.8845 -0.2211 -0.4109
vn -0.7975 -0.1955 -0.5707
vn -0.9717 0.0587 0.2288
vn -0.9950 0.0623 0.0784
vn -0.9080 0.0822 -0.4109
vn -0.8235 0.0822 -0.5613
vn -0.9624 0.0782 -0.2601
vn -0.9289 0.2998 0.2175
vn -0.8724 0.2797 0.4009
vn -0.9477 0.3114 0.0707
vn -0.9975 0.0685 -0.0196
vn -0.7844 0.2875 -0.5496
vn -0.9131 0.3109 -0.2639
vn -0.8607 0.3032 -0.4089
vn -0.9409 0.3130 -0.1291
vn -0.9892 0.0725 -0.1273
vn -0.7568 0.5006 0.4204
vn -0.8138 0.5399 0.2152
vn -0.9494 0.3132 -0.0215
vn -0.8274 0.5575 0.0684
vn -0.6887 0.4441 -0.5732
vn -0.8254 0.5496 -0.1291
vn -0.8077 0.5261 -0.2660
vn -0.7680 0.4859 -0.4173
vn -0.5012 0.7538 0.4248
vn -0.5415 0.8133 0.2131
vn -0.8289 0.5591 -0.0195
vn -0.5583 0.8266 0.0704
vn -0.4656 0.6573 -0.5927
vn -0.5623 0.8188 -0.1156
vn -0.5558 0.7926 -0.2505
vn -0.5303 0.7416 -0.4109
vn -0.2466 0.8749 0.4168
vn -0.2739 0.9351 0.2250
vn -0.5623 0.8268 -0.0157
vn -0.2957 0.9517 0.0823
vn -0.2524 0.7708 -0.5849
vn -0.3128 0.9442 -0.1036
vn -0.3071 0.9213 -0.2386
vn -0.2876 0.8706 -0.3991
vn 0.0137 0.9690 0.2467
vn -0.3074 0.9515 -0.0098
vn -0.0001 0.9946 0.1037
vn -0.0352 0.8002 -0.5986
vn -0.0313 0.9951 -0.0940
vn -0.0371 0.9700 -0.2404
vn -0.0411 0.9134 -0.4049
vn 0.2974 0.8532 0.4285
vn 0.3152 0.9143 0.2545
vn -0.0176 0.9998 0.0078
vn 0.3187 0.9403 0.1192
vn 0.2326 0.7623 -0.6039
vn 0.2992 0.9503 -0.0860
vn 0.2876 0.9275 -0.2387
vn 0.2684 0.8738 -0.4055
vn 0.4886 0.7603 0.4280
vn 0.5324 0.8104 0.2447
vn 0.3091 0.9506 0.0274
vn 0.5540 0.8242 0.1176
vn 0.4601 0.6500 -0.6049
vn 0.5678 0.8184 -0.0881
vn 0.5579 0.7948 -0.2388
vn 0.5282 0.7453 -0.4069
vn 0.6908 0.5949 0.4109
vn 0.7551 0.6143 0.2289
vn 0.5634 0.8256 0.0294
vn 0.7862 0.6102 0.0979
vn 0.6570 0.4536 -0.6022
vn 0.8061 0.5830 -0.1017
vn 0.7909 0.5618 -0.2427
vn 0.7479 0.5227 -0.4092
vn 0.9214 0.3287 0.2074
vn 0.8023 0.5968 0.0078
vn 0.9419 0.3270 0.0763
vn 0.7697 0.2585 -0.5836
vn 0.9453 0.3074 -0.1095
vn 0.9240 0.2956 -0.2427
vn 0.8723 0.2797 -0.4010
vn 0.9195 0.0020 0.3932
vn 0.9772 0.0136 0.2117
vn 0.9482 0.3174 -0.0157
vn 0.9970 0.0216 0.0745
vn 0.9925 0.0176 -0.1214
vn 0.9686 0.0117 -0.2485
vn 0.9152 0.0098 -0.4029
vn 0.9315 -0.2779 0.2348
vn 0.9994 0.0213 -0.0272
vn 0.9566 -0.2797 0.0821
vn 0.9516 -0.2780 -0.1312
vn 0.9253 -0.2778 -0.2582
vn 0.8759 -0.2659 -0.4027
vn 0.7378 -0.5030 0.4501
vn 0.7984 -0.5420 0.2622
vn 0.9598 -0.2795 -0.0274
vn 0.8218 -0.5616 0.0959
vn 0.7042 -0.4421 -0.5555
vn 0.8164 -0.5599 -0.1411
vn 0.7940 -0.5437 -0.2718
vn 0.7595 -0.5090 -0.4052
vn 0.5280 -0.7079 0.4693
vn 0.5719 -0.7717 0.2781
vn 0.8242 -0.5657 -0.0274
vn 0.5852 -0.8045 0.1018
vn 0.5263 -0.6535 -0.5439
vn 0.5807 -0.8018 -0.1411
vn 0.5709 -0.7761 -0.2679
vn 0.5556 -0.7336 -0.3913
vn 0.2718 -0.8369 0.4751
vn 0.2934 -0.9154 0.2757
vn 0.5852 -0.8104 -0.0293
vn 0.2992 -0.9485 0.1037
vn 0.2875 -0.7939 -0.5358
vn 0.3153 -0.9399 -0.1312
vn 0.3152 -0.9143 -0.2545
vn 0.3114 -0.8735 -0.3741
vn -0.0274 -0.8817 0.4711
vn -0.0353 -0.9633 0.2662
vn 0.3091 -0.9508 -0.0196
vn -0.0352 -0.9931 0.1115
vn -0.0215 -0.9926 -0.1194
vn -0.0196 -0.9689 -0.2466
vn -0.0196 -0.9296 -0.3679
vn -0.3091 -0.8336 0.4578
vn -0.3345 -0.9058 0.2602
vn -0.0293 -0.9996 -0.0019
vn -0.3386 -0.9338 0.1155
vn -0.3111 -0.7887 -0.5303
vn -0.3290 -0.9382 -0.1077
vn -0.3343 -0.9424 0.0098
vt 0.197040 0.376776
vt 0.176760 0.391928
vt 0.168628 0.376303
vt 0.187259 0.398428
vt 0.197620 0.400839
vt 0.211063 0.397589
vt 0.223606 0.384695
vt 0.226459 0.367254
vt 0.215366 0.353750
vt 0.206668 0.342885
vt 0.192691 0.342596
vt 0.175738 0.350179
vt 0.168612 0.362142
vt 0.182452 0.410178
vt 0.198382 0.415229
vt 0.170596 0.407919
vt 0.222141 0.335973
vt 0.235828 0.341787
vt 0.211963 0.329549
vt 0.197864 0.322637
vt 0.183032 0.324773
vt 0.160754 0.341421
vt 0.153918 0.354696
vt 0.154406 0.383764
vt 0.159503 0.397909
vt 0.241291 0.336660
vt 0.228382 0.328069
vt 0.215061 0.319707
vt 0.198108 0.311254
vt 0.173007 0.333913
vt 0.181125 0.314763
vt 0.152529 0.370138
vt 0.147158 0.386236
vt 0.145769 0.369589
vt 0.153109 0.401526
vt 0.219928 0.303639
vt 0.237507 0.315724
vt 0.198581 0.293950
vt 0.168261 0.327184
vt 0.176654 0.298970
vt 0.147188 0.352605
vt 0.165896 0.414130
vt 0.247761 0.297765
vt 0.226581 0.285710
vt 0.199603 0.279789
vt 0.154284 0.335210
vt 0.158206 0.312413
vt 0.175036 0.279103
vt 0.134829 0.348074
vt 0.142824 0.326100
vt 0.180362 0.416846
vt 0.269062 0.272450
vt 0.237476 0.253788
vt 0.200107 0.246006
vt 0.147204 0.295964
vt 0.163851 0.249027
vt 0.133211 0.368872
vt 0.128542 0.313970
vt 0.115786 0.341390
vt 0.212635 0.411856
vt 0.198535 0.422766
vt 0.200259 0.212818
vt 0.248127 0.221897
vt 0.128725 0.271443
vt 0.152392 0.219272
vt 0.133150 0.390967
vt 0.115953 0.367041
vt 0.102724 0.297780
vt 0.084932 0.332509
vt 0.223438 0.404349
vt 0.110018 0.247242
vt 0.200900 0.180240
vt 0.140856 0.189242
vt 0.142214 0.408682
vt 0.118700 0.395773
vt 0.083375 0.368536
vt 0.076860 0.282658
vt 0.055329 0.323751
vt 0.235782 0.397238
vt 0.242329 0.384558
vt 0.089158 0.218250
vt 0.259709 0.191165
vt 0.157351 0.424994
vt 0.049622 0.259922
vt 0.024460 0.311421
vt 0.048768 0.369482
vt 0.247593 0.370291
vt 0.245426 0.355673
vt 0.310643 0.218067
vt 0.175677 0.428946
vt 0.013443 0.369726
vt 0.057511 0.417578
vt 0.088121 0.406378
vt 0.256367 0.370962
vt 0.253498 0.352483
vt 0.352560 0.259739
vt 0.290166 0.246830
vt 0.024979 0.427665
vt 0.077943 0.458259
vt 0.101930 0.437476
vt 0.127886 0.417945
vt 0.250751 0.329336
vt 0.376272 0.313726
vt 0.322667 0.281285
vt 0.048783 0.479988
vt 0.113146 0.490456
vt 0.128405 0.462684
vt 0.146258 0.435431
vt 0.383947 0.373053
vt 0.342474 0.324758
vt 0.295628 0.296864
vt 0.090806 0.519875
vt 0.170336 0.445945
vt 0.160342 0.478141
vt 0.268955 0.313710
vt 0.366857 0.426566
vt 0.348424 0.372351
vt 0.311772 0.333410
vt 0.154772 0.511406
vt 0.142718 0.544976
vt 0.198474 0.435203
vt 0.280369 0.342107
vt 0.267994 0.347723
vt 0.344640 0.477653
vt 0.337194 0.416144
vt 0.316060 0.371496
vt 0.200870 0.518212
vt 0.200198 0.553124
vt 0.215366 0.418631
vt 0.283360 0.370565
vt 0.271122 0.370504
vt 0.307851 0.518532
vt 0.317021 0.458793
vt 0.307500 0.406516
vt 0.246494 0.510689
vt 0.255634 0.540688
vt 0.228580 0.410712
vt 0.219409 0.430518
vt 0.277546 0.397406
vt 0.263676 0.391272
vt 0.250340 0.387137
vt 0.292622 0.437140
vt 0.287297 0.491676
vt 0.198794 0.452049
vt 0.267430 0.417044
vt 0.254063 0.408881
vt 0.242481 0.401175
vt 0.268208 0.462959
vt 0.248554 0.434852
vt 0.236820 0.421973
vt 0.236225 0.478859
vt 0.198642 0.485359
vt 0.225360 0.447364
vt 0.625086 0.437995
vt 0.629007 0.412146
vt 0.642329 0.421363
vt 0.613001 0.423239
vt 0.637873 0.455757
vt 0.605997 0.474220
vt 0.600183 0.453071
vt 0.642573 0.392233
vt 0.624155 0.385794
vt 0.614252 0.399970
vt 0.665095 0.436820
vt 0.655924 0.398398
vt 0.595148 0.434943
vt 0.601526 0.409110
vt 0.652293 0.472938
vt 0.612070 0.492500
vt 0.572793 0.478126
vt 0.573449 0.455955
vt 0.595666 0.384924
vt 0.600855 0.377569
vt 0.683543 0.405325
vt 0.681682 0.448997
vt 0.589548 0.415183
vt 0.573571 0.437690
vt 0.587777 0.388907
vt 0.547036 0.452125
vt 0.538857 0.472450
vt 0.590875 0.372320
vt 0.584649 0.380346
vt 0.594919 0.365850
vt 0.602625 0.367834
vt 0.582544 0.390631
vt 0.574060 0.418830
vt 0.553002 0.435813
vt 0.525139 0.440086
vt 0.509453 0.457313
vt 0.575433 0.368933
vt 0.580713 0.384848
vt 0.601953 0.360098
vt 0.626474 0.368277
vt 0.574533 0.392126
vt 0.560861 0.418128
vt 0.536675 0.427344
vt 0.506905 0.421027
vt 0.486854 0.433524
vt 0.574991 0.385153
vt 0.600061 0.352392
vt 0.628229 0.351003
vt 0.646723 0.368277
vt 0.567514 0.391577
vt 0.548913 0.413443
vt 0.519677 0.412879
vt 0.569619 0.384787
vt 0.621210 0.337728
vt 0.648173 0.341634
vt 0.589593 0.354086
vt 0.662715 0.368277
vt 0.562707 0.389761
vt 0.533715 0.401663
vt 0.507652 0.390600
vt 0.493416 0.394293
vt 0.566476 0.380728
vt 0.637263 0.322866
vt 0.660120 0.335058
vt 0.691722 0.368078
vt 0.704845 0.411704
vt 0.553246 0.386175
vt 0.524758 0.385794
vt 0.469825 0.402045
vt 0.558267 0.372000
vt 0.649943 0.309560
vt 0.689158 0.327962
vt 0.713390 0.367010
vt 0.701961 0.464958
vt 0.664012 0.489845
vt 0.548577 0.377447
vt 0.558022 0.360235
vt 0.547036 0.368780
vt 0.566155 0.353674
vt 0.577264 0.353170
vt 0.680705 0.513558
vt 0.628611 0.539498
vt 0.620310 0.512871
vt 0.522026 0.369497
vt 0.523995 0.352224
vt 0.548424 0.359808
vt 0.574991 0.342168
vt 0.583993 0.340948
vt 0.594629 0.345098
vt 0.725353 0.483757
vt 0.571450 0.551934
vt 0.504295 0.369970
vt 0.504402 0.346380
vt 0.591638 0.319768
vt 0.605585 0.325597
vt 0.730220 0.418204
vt 0.754681 0.426688
vt 0.514748 0.543587
vt 0.571710 0.523507
vt 0.489387 0.369558
vt 0.619654 0.307515
vt 0.737408 0.367208
vt 0.764401 0.366369
vt 0.461341 0.521553
vt 0.522759 0.517143
vt 0.571054 0.497169
vt 0.461921 0.369436
vt 0.709667 0.319936
vt 0.729564 0.313832
vt 0.754376 0.302037
vt 0.419562 0.480552
vt 0.478187 0.496819
vt 0.531197 0.490120
vt 0.628626 0.296422
vt 0.672297 0.293309
vt 0.690715 0.278630
vt 0.706478 0.264607
vt 0.731548 0.246906
vt 0.398215 0.426581
vt 0.444282 0.463630
vt 0.496132 0.471702
vt 0.597635 0.297231
vt 0.645441 0.274083
vt 0.603174 0.284245
vt 0.659724 0.250034
vt 0.672374 0.231174
vt 0.690913 0.205005
vt 0.383947 0.369726
vt 0.422599 0.417456
vt 0.468940 0.445899
vt 0.574991 0.318196
vt 0.574746 0.297749
vt 0.611414 0.258320
vt 0.574380 0.280980
vt 0.618357 0.235477
vt 0.626352 0.209201
vt 0.636790 0.176409
vt 0.392401 0.309148
vt 0.412375 0.369635
vt 0.566354 0.342535
vt 0.558602 0.318731
vt 0.551354 0.298222
vt 0.574533 0.255772
vt 0.546929 0.282719
vt 0.574838 0.229953
vt 0.574945 0.202579
vt 0.574807 0.167514
vt 0.417380 0.252903
vt 0.418509 0.317678
vt 0.449195 0.407431
vt 0.537926 0.260426
vt 0.530846 0.307912
vt 0.521950 0.295872
vt 0.530739 0.234653
vt 0.523964 0.210788
vt 0.513603 0.179385
vt 0.440513 0.270405
vt 0.458701 0.210681
vt 0.440131 0.368215
vt 0.509285 0.276860
vt 0.514305 0.325048
vt 0.501778 0.315801
vt 0.496574 0.255619
vt 0.478721 0.232471
vt 0.443961 0.323766
vt 0.461173 0.283970
vt 0.466468 0.332998
vt 0.481895 0.299870
vt 0.490074 0.341955
vt 0.531518 0.337285
vt 0.552636 0.351904
vt 0.543114 0.325109
vt 0.558801 0.345281
vt 0.937255 0.046372
vt 0.966659 0.083589
vt 0.927397 0.070649
vt 0.885496 0.060105
vt 0.894163 0.035431
vt 0.984314 0.121691
vt 0.954269 0.095674
vt 0.915358 0.085603
vt 0.885252 0.077958
vt 0.854551 0.083207
vt 0.847929 0.066514
vt 0.842710 0.049363
vt 0.982422 0.163134
vt 0.966873 0.128618
vt 0.938979 0.104616
vt 0.888502 0.102556
vt 0.849607 0.109209
vt 0.829389 0.100298
vt 0.818326 0.093233
vt 0.806714 0.076967
vt 0.961349 0.199710
vt 0.965209 0.164004
vt 0.951308 0.131243
vt 0.918944 0.126802
vt 0.877867 0.143771
vt 0.831617 0.141741
vt 0.814695 0.125856
vt 0.799863 0.122042
vt 0.782986 0.106981
vt 0.926268 0.229206
vt 0.947128 0.195224
vt 0.949950 0.160204
vt 0.918105 0.163684
vt 0.886473 0.185443
vt 0.848035 0.175677
vt 0.813550 0.155901
vt 0.798184 0.157412
vt 0.782620 0.156146
vt 0.892058 0.244083
vt 0.914809 0.209110
vt 0.935210 0.185763
vt 0.908553 0.195483
vt 0.878492 0.203708
vt 0.849195 0.200458
vt 0.825696 0.181430
vt 0.813260 0.189944
vt 0.801800 0.201968
vt 0.835141 0.237095
vt 0.879316 0.219104
vt 0.842039 0.213169
vt 0.000000 0.823697
vt 0.051331 0.823545
vt 0.000000 0.880354
vt 0.000000 0.767483
vt 0.102846 0.824186
vt 0.051118 0.880034
vt 0.051652 0.767483
vt 0.000000 0.925734
vt 0.000000 0.711284
vt 0.051621 0.713222
vt 0.154101 0.824262
vt 0.102663 0.881499
vt 0.103410 0.767620
vt 0.050889 0.925246
vt 0.103899 0.710521
vt 0.049424 0.974289
vt 0.000000 0.975265
vt 0.000000 0.657069
vt 0.053834 0.657481
vt 0.104402 0.656275
vt 0.153994 0.881544
vt 0.102480 0.927474
vt 0.155047 0.710796
vt 0.154543 0.767956
vt 0.102312 0.975738
vt 0.155398 0.657115
vt 0.056046 0.610010
vt 0.000000 0.609827
vt 0.104829 0.610361
vt 0.155810 0.611734
vt 0.153933 0.927489
vt 0.154177 0.974685
vt 0.207446 0.657313
vt 0.207141 0.710948
vt 0.207813 0.611963
vt 0.207065 0.927504
vt 0.207660 0.973510
vt 0.206912 0.881559
vt 0.256535 0.658534
vt 0.257099 0.613611
vt 0.255940 0.711681
vt 0.206912 0.767224
vt 0.258671 0.972351
vt 0.256840 0.880156
vt 0.257282 0.926024
vt 0.256504 0.823011
vt 0.206821 0.824292
vt 0.304845 0.610681
vt 0.304250 0.656306
vt 0.256077 0.766949
vt 0.303746 0.710277
vt 0.308415 0.972183
vt 0.304326 0.824491
vt 0.305318 0.881941
vt 0.306493 0.928054
vt 0.352499 0.610544
vt 0.352346 0.656229
vt 0.303822 0.766873
vt 0.352483 0.710246
vt 0.354345 0.971344
vt 0.352789 0.824491
vt 0.353048 0.881941
vt 0.353384 0.928054
vt 0.399649 0.610208
vt 0.399985 0.658579
vt 0.352453 0.767315
vt 0.400610 0.710185
vt 0.401633 0.969039
vt 0.401068 0.823651
vt 0.401144 0.880552
vt 0.401236 0.926146
vt 0.446921 0.610697
vt 0.447303 0.656413
vt 0.400793 0.768154
vt 0.447654 0.710445
vt 0.448661 0.970626
vt 0.448310 0.824552
vt 0.448371 0.881148
vt 0.448432 0.926329
vt 0.495582 0.610819
vt 0.495796 0.656504
vt 0.448081 0.768246
vt 0.495705 0.710521
vt 0.495644 0.970810
vt 0.495354 0.824567
vt 0.495384 0.882002
vt 0.495415 0.928084
vt 0.545205 0.610895
vt 0.545083 0.656550
vt 0.495537 0.768185
vt 0.545159 0.710521
vt 0.543069 0.971359
vt 0.543053 0.824567
vt 0.543023 0.882002
vt 0.542962 0.928100
vt 0.590631 0.611658
vt 0.591791 0.656947
vt 0.543664 0.768002
vt 0.592447 0.710887
vt 0.591257 0.972213
vt 0.591241 0.824582
vt 0.591257 0.882017
vt 0.591226 0.928100
vt 0.643091 0.613138
vt 0.642298 0.657557
vt 0.591760 0.768002
vt 0.642588 0.711055
vt 0.640925 0.971054
vt 0.641154 0.823987
vt 0.641138 0.881727
vt 0.641077 0.928115
vt 0.693355 0.611063
vt 0.694240 0.656641
vt 0.641428 0.768246
vt 0.695064 0.710536
vt 0.693111 0.974472
vt 0.694926 0.824582
vt 0.694560 0.882017
vt 0.694087 0.928115
vt 0.747066 0.613092
vt 0.748775 0.658167
vt 0.695262 0.767727
vt 0.750103 0.711467
vt 0.746243 0.973388
vt 0.749935 0.823941
vt 0.749126 0.880980
vt 0.748150 0.926711
vt 0.792157 0.610391
vt 0.795773 0.656825
vt 0.750652 0.767803
vt 0.798917 0.711543
vt 0.796552 0.974594
vt 0.798932 0.824109
vt 0.798566 0.881148
vt 0.798093 0.926879
vt 0.841245 0.610025
vt 0.843214 0.656535
vt 0.799176 0.768277
vt 0.844907 0.711360
vt 0.845563 0.977310
vt 0.845045 0.824063
vt 0.845350 0.881117
vt 0.845624 0.926848
vt 0.892882 0.609842
vt 0.893370 0.655665
vt 0.844846 0.768597
vt 0.893782 0.709835
vt 0.897185 0.978775
vt 0.894194 0.824399
vt 0.894667 0.881895
vt 0.895171 0.928039
vt 0.946593 0.609781
vt 0.946716 0.655619
vt 0.893797 0.768399
vt 0.946807 0.709819
vt 0.948470 0.978271
vt 0.947738 0.824384
vt 0.947982 0.881880
vt 0.948211 0.928023
vt 0.999878 0.609827
vt 0.999878 0.657069
vt 0.947234 0.767605
vt 0.999878 0.711284
vt 0.999878 0.975265
vt 0.999878 0.823697
vt 0.999878 0.880354
vt 0.999878 0.925734
vt 0.999878 0.767483
s 1
g lemon__body_m_body_m
usemtl body_m
f 1/1/1 2/2/2 3/3/3
f 1/1/1 4/4/4 2/2/2
f 1/1/1 5/5/5 4/4/4
f 1/1/1 6/6/6 5/5/5
f 1/1/1 7/7/7 6/6/6
f 1/1/1 8/8/8 7/7/7
f 1/1/1 9/9/9 8/8/8
f 1/1/1 10/10/10 9/9/9
f 1/1/1 11/11/11 10/10/10
f 1/1/1 12/12/12 11/11/11
f 1/1/1 13/13/13 12/12/12
f 1/1/1 3/3/3 13/13/13
f 5/5/5 14/14/14 4/4/4
f 5/5/5 15/15/15 14/14/14
f 5/5/5 6/6/6 15/15/15
f 4/4/4 16/16/16 2/2/2
f 4/4/4 14/14/14 16/16/16
f 9/9/9 17/17/17 18/18/18
f 9/9/9 10/10/10 17/17/17
f 9/9/9 18/18/18 8/8/8
f 10/10/10 19/19/19 17/17/17
f 10/10/10 11/11/11 19/19/19
f 11/11/11 20/20/20 19/19/19
f 11/11/11 21/21/21 20/20/20
f 11/11/11 12/12/12 21/21/21
f 13/13/13 22/22/22 12/12/12
f 13/13/13 23/23/23 22/22/22
f 13/13/13 3/3/3 23/23/23
f 2/2/2 24/24/24 3/3/3
f 2/2/2 25/25/25 24/24/24
f 2/2/2 16/16/16 25/25/25
f 17/17/17 26/26/26 18/18/18
f 17/17/17 27/27/27 26/26/26
f 17/17/17 19/19/19 27/27/27
f 19/19/19 28/28/28 27/27/27
f 19/19/19 20/20/20 28/28/28
f 20/20/20 29/29/29 28/28/28
f 20/20/20 21/21/21 29/29/29
f 21/21/21 12/12/12 30/30/30
f 21/21/21 31/31/31 29/29/29
f 21/21/21 30/30/30 31/31/31
f 3/3/3 32/32/32 23/23/23
f 3/3/3 24/24/24 32/32/32
f 24/24/24 25/25/25 33/33/33
f 24/24/24 34/34/34 32/32/32
f 24/24/24 33/33/33 34/34/34
f 25/25/25 35/35/35 33/33/33
f 25/25/25 16/16/16 35/35/35
f 28/28/28 29/29/29 36/36/36
f 28/28/28 37/37/37 27/27/27
f 28/28/28 36/36/36 37/37/37
f 29/29/29 31/31/31 38/38/38
f 29/29/29 38/38/38 36/36/36
f 12/12/12 22/22/22 30/30/30
f 30/30/30 39/39/39 31/31/31
f 30/30/30 22/22/22 39/39/39
f 31/31/31 39/39/39 40/40/40
f 31/31/31 40/40/40 38/38/38
f 32/32/32 41/41/41 23/23/23
f 32/32/32 34/34/34 41/41/41
f 16/16/16 42/42/42 35/35/35
f 16/16/16 14/14/14 42/42/42
f 36/36/36 43/43/43 37/37/37
f 36/36/36 44/44/44 43/43/43
f 36/36/36 38/38/38 44/44/44
f 38/38/38 45/45/45 44/44/44
f 38/38/38 40/40/40 45/45/45
f 22/22/22 46/46/46 39/39/39
f 22/22/22 23/23/23 46/46/46
f 39/39/39 46/46/46 47/47/47
f 39/39/39 47/47/47 40/40/40
f 40/40/40 48/48/48 45/45/45
f 40/40/40 47/47/47 48/48/48
f 23/23/23 41/41/41 46/46/46
f 41/41/41 34/34/34 49/49/49
f 41/41/41 50/50/50 46/46/46
f 41/41/41 49/49/49 50/50/50
f 14/14/14 51/51/51 42/42/42
f 14/14/14 15/15/15 51/51/51
f 44/44/44 52/52/52 43/43/43
f 44/44/44 53/53/53 52/52/52
f 44/44/44 45/45/45 53/53/53
f 45/45/45 54/54/54 53/53/53
f 45/45/45 48/48/48 54/54/54
f 46/46/46 50/50/50 47/47/47
f 47/47/47 55/55/55 48/48/48
f 47/47/47 50/50/50 55/55/55
f 48/48/48 56/56/56 54/54/54
f 48/48/48 55/55/55 56/56/56
f 34/34/34 33/33/33 57/57/57
f 34/34/34 57/57/57 49/49/49
f 50/50/50 58/58/58 55/55/55
f 50/50/50 49/49/49 58/58/58
f 49/49/49 59/59/59 58/58/58
f 49/49/49 57/57/57 59/59/59
f 15/15/15 6/6/6 60/60/60
f 15/15/15 61/61/61 51/51/51
f 15/15/15 60/60/60 61/61/61
f 54/54/54 56/56/56 62/62/62
f 54/54/54 63/63/63 53/53/53
f 54/54/54 62/62/62 63/63/63
f 55/55/55 64/64/64 56/56/56
f 55/55/55 58/58/58 64/64/64
f 56/56/56 64/64/64 65/65/65
f 56/56/56 65/65/65 62/62/62
f 33/33/33 66/66/66 57/57/57
f 33/33/33 35/35/35 66/66/66
f 57/57/57 67/67/67 59/59/59
f 57/57/57 66/66/66 67/67/67
f 58/58/58 68/68/68 64/64/64
f 58/58/58 59/59/59 68/68/68
f 59/59/59 69/69/69 68/68/68
f 59/59/59 67/67/67 69/69/69
f 6/6/6 70/70/70 60/60/60
f 6/6/6 7/7/7 70/70/70
f 64/64/64 68/68/68 71/71/71
f 64/64/64 71/71/71 65/65/65
f 65/65/65 72/72/72 62/62/62
f 65/65/65 73/73/73 72/72/72
f 65/65/65 71/71/71 73/73/73
f 66/66/66 74/74/74 75/75/75
f 66/66/66 75/75/75 67/67/67
f 66/66/66 35/35/35 74/74/74
f 35/35/35 42/42/42 74/74/74
f 67/67/67 76/76/76 69/69/69
f 67/67/67 75/75/75 76/76/76
f 68/68/68 69/69/69 77/77/77
f 68/68/68 77/77/77 71/71/71
f 69/69/69 76/76/76 78/78/78
f 69/69/69 78/78/78 77/77/77
f 7/7/7 79/79/79 70/70/70
f 7/7/7 80/80/80 79/79/79
f 7/7/7 8/8/8 80/80/80
f 71/71/71 81/81/81 73/73/73
f 71/71/71 77/77/77 81/81/81
f 72/72/72 82/82/82 62/62/62
f 42/42/42 51/51/51 83/83/83
f 42/42/42 83/83/83 74/74/74
f 77/77/77 84/84/84 81/81/81
f 77/77/77 78/78/78 84/84/84
f 78/78/78 85/85/85 84/84/84
f 78/78/78 86/86/86 85/85/85
f 78/78/78 76/76/76 86/86/86
f 8/8/8 87/87/87 80/80/80
f 8/8/8 88/88/88 87/87/87
f 8/8/8 18/18/18 88/88/88
f 82/82/82 89/89/89 63/63/63
f 82/82/82 63/63/63 62/62/62
f 51/51/51 61/61/61 90/90/90
f 51/51/51 90/90/90 83/83/83
f 85/85/85 86/86/86 91/91/91
f 86/86/86 92/92/92 91/91/91
f 86/86/86 76/76/76 93/93/93
f 86/86/86 93/93/93 92/92/92
f 88/88/88 94/94/94 87/87/87
f 88/88/88 95/95/95 94/94/94
f 88/88/88 18/18/18 95/95/95
f 18/18/18 26/26/26 95/95/95
f 89/89/89 96/96/96 97/97/97
f 89/89/89 97/97/97 63/63/63
f 63/63/63 97/97/97 53/53/53
f 91/91/91 92/92/92 98/98/98
f 92/92/92 99/99/99 98/98/98
f 92/92/92 93/93/93 100/100/100
f 92/92/92 100/100/100 99/99/99
f 76/76/76 75/75/75 93/93/93
f 93/93/93 75/75/75 101/101/101
f 93/93/93 101/101/101 100/100/100
f 26/26/26 27/27/27 102/102/102
f 26/26/26 102/102/102 95/95/95
f 96/96/96 103/103/103 104/104/104
f 96/96/96 104/104/104 97/97/97
f 97/97/97 52/52/52 53/53/53
f 97/97/97 104/104/104 52/52/52
f 98/98/98 99/99/99 105/105/105
f 99/99/99 106/106/106 105/105/105
f 99/99/99 100/100/100 107/107/107
f 99/99/99 107/107/107 106/106/106
f 100/100/100 101/101/101 108/108/108
f 100/100/100 108/108/108 107/107/107
f 75/75/75 74/74/74 101/101/101
f 101/101/101 74/74/74 83/83/83
f 101/101/101 83/83/83 108/108/108
f 27/27/27 37/37/37 102/102/102
f 103/103/103 109/109/109 110/110/110
f 103/103/103 110/110/110 104/104/104
f 104/104/104 111/111/111 52/52/52
f 104/104/104 110/110/110 111/111/111
f 52/52/52 111/111/111 43/43/43
f 105/105/105 106/106/106 112/112/112
f 107/107/107 108/108/108 113/113/113
f 107/107/107 113/113/113 114/114/114
f 107/107/107 114/114/114 106/106/106
f 108/108/108 83/83/83 90/90/90
f 108/108/108 90/90/90 113/113/113
f 37/37/37 115/115/115 102/102/102
f 37/37/37 43/43/43 115/115/115
f 109/109/109 116/116/116 117/117/117
f 109/109/109 117/117/117 110/110/110
f 110/110/110 118/118/118 111/111/111
f 110/110/110 117/117/117 118/118/118
f 111/111/111 118/118/118 115/115/115
f 111/111/111 115/115/115 43/43/43
f 112/112/112 106/106/106 119/119/119
f 112/112/112 119/119/119 120/120/120
f 90/90/90 121/121/121 113/113/113
f 90/90/90 61/61/61 121/121/121
f 115/115/115 122/122/122 102/102/102
f 115/115/115 118/118/118 122/122/122
f 102/102/102 122/122/122 123/123/123
f 102/102/102 123/123/123 95/95/95
f 116/116/116 124/124/124 125/125/125
f 116/116/116 125/125/125 117/117/117
f 117/117/117 126/126/126 118/118/118
f 117/117/117 125/125/125 126/126/126
f 118/118/118 126/126/126 122/122/122
f 106/106/106 114/114/114 119/119/119
f 120/120/120 119/119/119 127/127/127
f 120/120/120 127/127/127 128/128/128
f 61/61/61 60/60/60 129/129/129
f 61/61/61 129/129/129 121/121/121
f 122/122/122 130/130/130 123/123/123
f 122/122/122 126/126/126 130/130/130
f 123/123/123 130/130/130 131/131/131
f 123/123/123 131/131/131 95/95/95
f 95/95/95 131/131/131 94/94/94
f 124/124/124 132/132/132 133/133/133
f 124/124/124 133/133/133 125/125/125
f 125/125/125 134/134/134 126/126/126
f 125/125/125 133/133/133 134/134/134
f 126/126/126 134/134/134 130/130/130
f 128/128/128 127/127/127 135/135/135
f 128/128/128 135/135/135 136/136/136
f 60/60/60 70/70/70 129/129/129
f 129/129/129 70/70/70 137/137/137
f 129/129/129 137/137/137 138/138/138
f 129/129/129 138/138/138 121/121/121
f 130/130/130 139/139/139 131/131/131
f 130/130/130 134/134/134 139/139/139
f 131/131/131 139/139/139 140/140/140
f 131/131/131 140/140/140 94/94/94
f 94/94/94 141/141/141 87/87/87
f 94/94/94 140/140/140 141/141/141
f 134/134/134 142/142/142 139/139/139
f 134/134/134 133/133/133 142/142/142
f 136/136/136 135/135/135 143/143/143
f 136/136/136 143/143/143 132/132/132
f 70/70/70 79/79/79 137/137/137
f 121/121/121 144/144/144 113/113/113
f 121/121/121 138/138/138 144/144/144
f 139/139/139 145/145/145 140/140/140
f 139/139/139 142/142/142 145/145/145
f 140/140/140 145/145/145 146/146/146
f 140/140/140 146/146/146 141/141/141
f 141/141/141 147/147/147 80/80/80
f 141/141/141 80/80/80 87/87/87
f 141/141/141 146/146/146 147/147/147
f 142/142/142 148/148/148 145/145/145
f 142/142/142 143/143/143 148/148/148
f 142/142/142 133/133/133 143/143/143
f 143/143/143 133/133/133 132/132/132
f 143/143/143 135/135/135 148/148/148
f 79/79/79 147/147/147 137/137/137
f 79/79/79 80/80/80 147/147/147
f 113/113/113 144/144/144 114/114/114
f 145/145/145 149/149/149 146/146/146
f 145/145/145 148/148/148 149/149/149
f 146/146/146 149/149/149 150/150/150
f 146/146/146 150/150/150 147/147/147
f 147/147/147 150/150/150 137/137/137
f 148/148/148 151/151/151 149/149/149
f 148/148/148 135/135/135 151/151/151
f 135/135/135 127/127/127 151/151/151
f 137/137/137 150/150/150 138/138/138
f 114/114/114 144/144/144 152/152/152
f 114/114/114 152/152/152 119/119/119
f 149/149/149 153/153/153 150/150/150
f 149/149/149 151/151/151 153/153/153
f 150/150/150 153/153/153 138/138/138
f 151/151/151 152/152/152 153/153/153
f 151/151/151 127/127/127 152/152/152
f 127/127/127 119/119/119 152/152/152
f 138/138/138 153/153/153 144/144/144
f 144/144/144 153/153/153 152/152/152
f 154/154/154 155/155/155 156/156/156
f 154/154/154 157/157/157 155/155/155
f 154/154/154 158/158/158 159/159/159
f 154/154/154 159/159/159 160/160/160
f 154/154/154 160/160/160 157/157/157
f 154/154/154 156/156/156 158/158/158
f 155/155/155 161/161/161 156/156/156
f 155/155/155 162/162/162 161/161/161
f 155/155/155 163/163/163 162/162/162
f 155/155/155 157/157/157 163/163/163
f 156/156/156 164/164/164 158/158/158
f 156/156/156 165/165/165 164/164/164
f 156/156/156 161/161/161 165/165/165
f 157/157/157 166/166/166 167/167/167
f 157/157/157 167/167/167 163/163/163
f 157/157/157 160/160/160 166/166/166
f 158/158/158 164/164/164 168/168/168
f 158/158/158 168/168/168 169/169/169
f 158/158/158 169/169/169 159/159/159
f 160/160/160 159/159/159 170/170/170
f 160/160/160 170/170/170 171/171/171
f 160/160/160 171/171/171 166/166/166
f 163/163/163 172/172/172 173/173/173
f 163/163/163 167/167/167 172/172/172
f 163/163/163 173/173/173 162/162/162
f 164/164/164 174/174/174 175/175/175
f 164/164/164 175/175/175 168/168/168
f 164/164/164 165/165/165 174/174/174
f 166/166/166 176/176/176 167/167/167
f 166/166/166 177/177/177 176/176/176
f 166/166/166 171/171/171 177/177/177
f 167/167/167 178/178/178 172/172/172
f 167/167/167 176/176/176 178/178/178
f 171/171/171 179/179/179 177/177/177
f 171/171/171 180/180/180 179/179/179
f 171/171/171 170/170/170 180/180/180
f 172/172/172 181/181/181 173/173/173
f 172/172/172 182/182/182 181/181/181
f 172/172/172 178/178/178 182/182/182
f 173/173/173 181/181/181 183/183/183
f 173/173/173 183/183/183 184/184/184
f 173/173/173 184/184/184 162/162/162
f 176/176/176 185/185/185 178/178/178
f 176/176/176 186/186/186 185/185/185
f 176/176/176 177/177/177 186/186/186
f 177/177/177 187/187/187 186/186/186
f 177/177/177 179/179/179 187/187/187
f 178/178/178 185/185/185 182/182/182
f 179/179/179 188/188/188 187/187/187
f 179/179/179 180/180/180 189/189/189
f 179/179/179 189/189/189 188/188/188
f 181/181/181 182/182/182 190/190/190
f 181/181/181 190/190/190 183/183/183
f 182/182/182 191/191/191 190/190/190
f 182/182/182 185/185/185 191/191/191
f 184/184/184 183/183/183 192/192/192
f 184/184/184 192/192/192 193/193/193
f 184/184/184 193/193/193 162/162/162
f 162/162/162 193/193/193 161/161/161
f 185/185/185 194/194/194 191/191/191
f 185/185/185 186/186/186 194/194/194
f 186/186/186 195/195/195 194/194/194
f 186/186/186 187/187/187 195/195/195
f 187/187/187 196/196/196 195/195/195
f 187/187/187 188/188/188 196/196/196
f 188/188/188 197/197/197 196/196/196
f 188/188/188 198/198/198 197/197/197
f 188/188/188 189/189/189 198/198/198
f 191/191/191 199/199/199 190/190/190
f 191/191/191 194/194/194 199/199/199
f 192/192/192 200/200/200 201/201/201
f 192/192/192 183/183/183 200/200/200
f 192/192/192 201/201/201 193/193/193
f 193/193/193 201/201/201 202/202/202
f 193/193/193 202/202/202 161/161/161
f 161/161/161 202/202/202 165/165/165
f 194/194/194 203/203/203 199/199/199
f 194/194/194 195/195/195 203/203/203
f 195/195/195 204/204/204 203/203/203
f 195/195/195 196/196/196 204/204/204
f 196/196/196 205/205/205 204/204/204
f 196/196/196 197/197/197 205/205/205
f 199/199/199 206/206/206 190/190/190
f 199/199/199 203/203/203 206/206/206
f 201/201/201 200/200/200 207/207/207
f 201/201/201 207/207/207 208/208/208
f 201/201/201 208/208/208 202/202/202
f 183/183/183 190/190/190 209/209/209
f 183/183/183 209/209/209 200/200/200
f 202/202/202 208/208/208 210/210/210
f 202/202/202 210/210/210 165/165/165
f 165/165/165 210/210/210 174/174/174
f 203/203/203 211/211/211 206/206/206
f 203/203/203 204/204/204 211/211/211
f 204/204/204 212/212/212 211/211/211
f 204/204/204 205/205/205 212/212/212
f 205/205/205 213/213/213 212/212/212
f 205/205/205 197/197/197 214/214/214
f 205/205/205 214/214/214 213/213/213
f 206/206/206 215/215/215 190/190/190
f 206/206/206 211/211/211 215/215/215
f 208/208/208 216/216/216 217/217/217
f 208/208/208 207/207/207 216/216/216
f 208/208/208 217/217/217 210/210/210
f 210/210/210 217/217/217 218/218/218
f 210/210/210 218/218/218 174/174/174
f 174/174/174 218/218/218 219/219/219
f 174/174/174 219/219/219 175/175/175
f 211/211/211 220/220/220 215/215/215
f 211/211/211 212/212/212 220/220/220
f 212/212/212 221/221/221 220/220/220
f 212/212/212 213/213/213 221/221/221
f 197/197/197 198/198/198 222/222/222
f 197/197/197 222/222/222 214/214/214
f 215/215/215 223/223/223 190/190/190
f 215/215/215 220/220/220 223/223/223
f 217/217/217 216/216/216 224/224/224
f 217/217/217 224/224/224 225/225/225
f 217/217/217 225/225/225 218/218/218
f 218/218/218 225/225/225 226/226/226
f 218/218/218 226/226/226 219/219/219
f 175/175/175 219/219/219 227/227/227
f 175/175/175 227/227/227 228/228/228
f 175/175/175 228/228/228 168/168/168
f 220/220/220 221/221/221 229/229/229
f 220/220/220 229/229/229 223/223/223
f 223/223/223 230/230/230 190/190/190
f 223/223/223 229/229/229 231/231/231
f 223/223/223 231/231/231 230/230/230
f 190/190/190 230/230/230 232/232/232
f 190/190/190 232/232/232 233/233/233
f 190/190/190 233/233/233 209/209/209
f 228/228/228 227/227/227 234/234/234
f 228/228/228 234/234/234 235/235/235
f 228/228/228 235/235/235 236/236/236
f 228/228/228 236/236/236 168/168/168
f 168/168/168 236/236/236 169/169/169
f 229/229/229 221/221/221 237/237/237
f 229/229/229 237/237/237 231/231/231
f 231/231/231 237/237/237 238/238/238
f 231/231/231 238/238/238 239/239/239
f 231/231/231 239/239/239 230/230/230
f 233/233/233 232/232/232 240/240/240
f 233/233/233 240/240/240 241/241/241
f 233/233/233 241/241/241 209/209/209
f 209/209/209 242/242/242 200/200/200
f 209/209/209 241/241/241 242/242/242
f 234/234/234 227/227/227 243/243/243
f 235/235/235 244/244/244 236/236/236
f 221/221/221 213/213/213 245/245/245
f 221/221/221 245/245/245 237/237/237
f 237/237/237 245/245/245 246/246/246
f 237/237/237 246/246/246 238/238/238
f 241/241/241 240/240/240 247/247/247
f 241/241/241 247/247/247 248/248/248
f 241/241/241 248/248/248 242/242/242
f 242/242/242 248/248/248 207/207/207
f 242/242/242 207/207/207 200/200/200
f 227/227/227 219/219/219 249/249/249
f 227/227/227 249/249/249 243/243/243
f 243/243/243 249/249/249 250/250/250
f 244/244/244 251/251/251 252/252/252
f 244/244/244 252/252/252 236/236/236
f 213/213/213 214/214/214 253/253/253
f 213/213/213 253/253/253 245/245/245
f 248/248/248 254/254/254 216/216/216
f 248/248/248 216/216/216 207/207/207
f 248/248/248 247/247/247 254/254/254
f 219/219/219 226/226/226 249/249/249
f 249/249/249 226/226/226 255/255/255
f 249/249/249 255/255/255 250/250/250
f 250/250/250 255/255/255 256/256/256
f 251/251/251 257/257/257 258/258/258
f 251/251/251 258/258/258 252/252/252
f 236/236/236 252/252/252 169/169/169
f 252/252/252 258/258/258 259/259/259
f 252/252/252 259/259/259 169/169/169
f 214/214/214 222/222/222 260/260/260
f 214/214/214 260/260/260 253/253/253
f 216/216/216 254/254/254 224/224/224
f 226/226/226 225/225/225 261/261/261
f 226/226/226 261/261/261 255/255/255
f 255/255/255 261/261/261 262/262/262
f 255/255/255 262/262/262 256/256/256
f 256/256/256 262/262/262 263/263/263
f 257/257/257 264/264/264 265/265/265
f 257/257/257 265/265/265 258/258/258
f 258/258/258 265/265/265 266/266/266
f 258/258/258 266/266/266 259/259/259
f 169/169/169 259/259/259 159/159/159
f 259/259/259 266/266/266 170/170/170
f 259/259/259 170/170/170 159/159/159
f 224/224/224 254/254/254 267/267/267
f 224/224/224 267/267/267 268/268/268
f 224/224/224 268/268/268 225/225/225
f 225/225/225 268/268/268 261/261/261
f 261/261/261 268/268/268 269/269/269
f 261/261/261 269/269/269 262/262/262
f 262/262/262 269/269/269 270/270/270
f 262/262/262 270/270/270 263/263/263
f 263/263/263 270/270/270 271/271/271
f 264/264/264 272/272/272 273/273/273
f 264/264/264 273/273/273 265/265/265
f 265/265/265 273/273/273 274/274/274
f 265/265/265 274/274/274 266/266/266
f 266/266/266 180/180/180 170/170/170
f 266/266/266 274/274/274 180/180/180
f 254/254/254 247/247/247 275/275/275
f 254/254/254 275/275/275 267/267/267
f 268/268/268 267/267/267 276/276/276
f 268/268/268 276/276/276 269/269/269
f 267/267/267 275/275/275 277/277/277
f 267/267/267 277/277/277 276/276/276
f 269/269/269 276/276/276 278/278/278
f 269/269/269 278/278/278 270/270/270
f 270/270/270 278/278/278 279/279/279
f 270/270/270 279/279/279 271/271/271
f 271/271/271 279/279/279 280/280/280
f 272/272/272 281/281/281 282/282/282
f 272/272/272 282/282/282 273/273/273
f 273/273/273 283/283/283 274/274/274
f 273/273/273 282/282/282 283/283/283
f 274/274/274 189/189/189 180/180/180
f 274/274/274 283/283/283 189/189/189
f 247/247/247 240/240/240 284/284/284
f 247/247/247 284/284/284 275/275/275
f 275/275/275 284/284/284 285/285/285
f 275/275/275 285/285/285 277/277/277
f 276/276/276 277/277/277 286/286/286
f 276/276/276 286/286/286 278/278/278
f 277/277/277 285/285/285 287/287/287
f 277/277/277 287/287/287 286/286/286
f 278/278/278 286/286/286 288/288/288
f 278/278/278 288/288/288 279/279/279
f 279/279/279 288/288/288 289/289/289
f 279/279/279 289/289/289 280/280/280
f 280/280/280 289/289/289 290/290/290
f 281/281/281 291/291/291 292/292/292
f 281/281/281 292/292/292 282/282/282
f 189/189/189 283/283/283 198/198/198
f 240/240/240 232/232/232 293/293/293
f 240/240/240 293/293/293 284/284/284
f 284/284/284 293/293/293 294/294/294
f 284/284/284 294/294/294 285/285/285
f 285/285/285 294/294/294 295/295/295
f 285/285/285 295/295/295 287/287/287
f 286/286/286 287/287/287 296/296/296
f 286/286/286 296/296/296 288/288/288
f 287/287/287 295/295/295 297/297/297
f 287/287/287 297/297/297 296/296/296
f 288/288/288 296/296/296 298/298/298
f 288/288/288 298/298/298 289/289/289
f 289/289/289 298/298/298 299/299/299
f 289/289/289 299/299/299 290/290/290
f 290/290/290 299/299/299 300/300/300
f 291/291/291 301/301/301 302/302/302
f 291/291/291 302/302/302 292/292/292
f 198/198/198 303/303/303 222/222/222
f 198/198/198 283/283/283 303/303/303
f 296/296/296 297/297/297 304/304/304
f 296/296/296 304/304/304 298/298/298
f 297/297/297 305/305/305 306/306/306
f 297/297/297 295/295/295 305/305/305
f 297/297/297 306/306/306 304/304/304
f 298/298/298 304/304/304 307/307/307
f 298/298/298 307/307/307 299/299/299
f 299/299/299 307/307/307 308/308/308
f 299/299/299 308/308/308 300/300/300
f 300/300/300 308/308/308 309/309/309
f 301/301/301 310/310/310 302/302/302
f 301/301/301 311/311/311 310/310/310
f 222/222/222 312/312/312 260/260/260
f 222/222/222 303/303/303 312/312/312
f 283/283/283 282/282/282 303/303/303
f 304/304/304 306/306/306 313/313/313
f 304/304/304 313/313/313 307/307/307
f 306/306/306 314/314/314 315/315/315
f 306/306/306 305/305/305 314/314/314
f 306/306/306 315/315/315 313/313/313
f 307/307/307 313/313/313 316/316/316
f 307/307/307 316/316/316 308/308/308
f 308/308/308 316/316/316 317/317/317
f 308/308/308 317/317/317 309/309/309
f 309/309/309 317/317/317 311/311/311
f 311/311/311 317/317/317 310/310/310
f 310/310/310 318/318/318 302/302/302
f 310/310/310 319/319/319 318/318/318
f 310/310/310 317/317/317 319/319/319
f 260/260/260 320/320/320 253/253/253
f 260/260/260 312/312/312 318/318/318
f 260/260/260 318/318/318 320/320/320
f 282/282/282 292/292/292 303/303/303
f 313/313/313 315/315/315 321/321/321
f 313/313/313 321/321/321 316/316/316
f 316/316/316 321/321/321 319/319/319
f 316/316/316 319/319/319 317/317/317
f 318/318/318 319/319/319 320/320/320
f 318/318/318 312/312/312 302/302/302
f 302/302/302 312/312/312 292/292/292
f 319/319/319 321/321/321 320/320/320
f 320/320/320 322/322/322 253/253/253
f 320/320/320 321/321/321 322/322/322
f 253/253/253 322/322/322 245/245/245
f 292/292/292 312/312/312 303/303/303
f 321/321/321 315/315/315 322/322/322
f 322/322/322 246/246/246 245/245/245
f 322/322/322 315/315/315 246/246/246
f 246/246/246 314/314/314 238/238/238
f 246/246/246 315/315/315 314/314/314
f 314/314/314 323/323/323 238/238/238
f 314/314/314 305/305/305 323/323/323
f 238/238/238 323/323/323 239/239/239
f 323/323/323 324/324/324 239/239/239
f 323/323/323 325/325/325 324/324/324
f 323/323/323 305/305/305 325/325/325
f 305/305/305 295/295/295 325/325/325
f 239/239/239 324/324/324 230/230/230
f 324/324/324 232/232/232 230/230/230
f 324/324/324 325/325/325 326/326/326
f 324/324/324 326/326/326 232/232/232
f 325/325/325 294/294/294 326/326/326
f 325/325/325 295/295/295 294/294/294
f 232/232/232 326/326/326 293/293/293
f 326/326/326 294/294/294 293/293/293
f 327/327/327 328/328/328 329/329/329
f 327/327/327 330/330/330 331/331/331
f 327/327/327 329/329/329 330/330/330
f 328/328/328 332/332/332 333/333/333
f 328/328/328 333/333/333 329/329/329
f 329/329/329 334/334/334 335/335/335
f 329/329/329 335/335/335 330/330/330
f 329/329/329 333/333/333 334/334/334
f 330/330/330 336/336/336 337/337/337
f 330/330/330 337/337/337 331/331/331
f 330/330/330 335/335/335 336/336/336
f 331/331/331 337/337/337 338/338/338
f 332/332/332 339/339/339 340/340/340
f 332/332/332 340/340/340 333/333/333
f 333/333/333 340/340/340 341/341/341
f 333/333/333 341/341/341 334/334/334
f 334/334/334 341/341/341 342/342/342
f 334/334/334 342/342/342 335/335/335
f 335/335/335 342/342/342 343/343/343
f 335/335/335 343/343/343 336/336/336
f 336/336/336 343/343/343 344/344/344
f 336/336/336 344/344/344 337/337/337
f 337/337/337 344/344/344 345/345/345
f 337/337/337 345/345/345 338/338/338
f 338/338/338 345/345/345 346/346/346
f 339/339/339 347/347/347 348/348/348
f 339/339/339 348/348/348 340/340/340
f 340/340/340 348/348/348 349/349/349
f 340/340/340 349/349/349 341/341/341
f 341/341/341 349/349/349 350/350/350
f 341/341/341 350/350/350 342/342/342
f 342/342/342 350/350/350 351/351/351
f 342/342/342 351/351/351 343/343/343
f 343/343/343 352/352/352 344/344/344
f 343/343/343 351/351/351 352/352/352
f 344/344/344 352/352/352 353/353/353
f 344/344/344 353/353/353 345/345/345
f 345/345/345 353/353/353 354/354/354
f 345/345/345 354/354/354 346/346/346
f 346/346/346 354/354/354 355/355/355
f 347/347/347 356/356/356 357/357/357
f 347/347/347 357/357/357 348/348/348
f 348/348/348 357/357/357 358/358/358
f 348/348/348 358/358/358 349/349/349
f 349/349/349 358/358/358 350/350/350
f 350/350/350 358/358/358 359/359/359
f 350/350/350 359/359/359 351/351/351
f 351/351/351 360/360/360 361/361/361
f 351/351/351 361/361/361 352/352/352
f 351/351/351 359/359/359 360/360/360
f 352/352/352 361/361/361 362/362/362
f 352/352/352 362/362/362 353/353/353
f 353/353/353 362/362/362 354/354/354
f 354/354/354 362/362/362 363/363/363
f 354/354/354 363/363/363 355/355/355
f 355/355/355 363/363/363 364/364/364
f 356/356/356 365/365/365 366/366/366
f 356/356/356 366/366/366 357/357/357
f 357/357/357 366/366/366 367/367/367
f 357/357/357 367/367/367 358/358/358
f 358/358/358 367/367/367 359/359/359
f 359/359/359 367/367/367 368/368/368
f 359/359/359 368/368/368 360/360/360
f 360/360/360 368/368/368 369/369/369
f 360/360/360 369/369/369 361/361/361
f 361/361/361 370/370/370 371/371/371
f 361/361/361 369/369/369 370/370/370
f 361/361/361 371/371/371 362/362/362
f 362/362/362 371/371/371 363/363/363
f 363/363/363 371/371/371 372/372/372
f 363/363/363 372/372/372 364/364/364
f 364/364/364 372/372/372 373/373/373
f 365/365/365 374/374/374 375/375/375
f 365/365/365 375/375/375 366/366/366
f 366/366/366 375/375/375 368/368/368
f 366/366/366 368/368/368 367/367/367
f 368/368/368 375/375/375 369/369/369
f 369/369/369 376/376/376 370/370/370
f 369/369/369 375/375/375 376/376/376
f 370/370/370 376/376/376 372/372/372
f 370/370/370 372/372/372 371/371/371
f 372/372/372 376/376/376 373/373/373
f 373/373/373 376/376/376 374/374/374
f 374/374/374 376/376/376 375/375/375
f 377/377/377 378/378/378 379/379/379
f 377/377/377 380/380/380 378/378/378
f 378/378/378 381/381/381 382/382/382
f 378/378/378 383/383/383 381/381/381
f 378/378/378 382/382/382 379/379/379
f 378/378/378 380/380/380 383/383/383
f 379/379/379 382/382/382 384/384/384
f 380/380/380 385/385/385 386/386/386
f 380/380/380 386/386/386 383/383/383
f 381/381/381 387/387/387 388/388/388
f 381/381/381 389/389/389 387/387/387
f 381/381/381 388/388/388 382/382/382
f 381/381/381 383/383/383 389/389/389
f 382/382/382 388/388/388 390/390/390
f 382/382/382 390/390/390 384/384/384
f 383/383/383 391/391/391 389/389/389
f 383/383/383 386/386/386 391/391/391
f 384/384/384 392/392/392 393/393/393
f 384/384/384 390/390/390 392/392/392
f 385/385/385 394/394/394 395/395/395
f 385/385/385 395/395/395 386/386/386
f 386/386/386 396/396/396 391/391/391
f 386/386/386 395/395/395 396/396/396
f 388/388/388 387/387/387 397/397/397
f 388/388/388 397/397/397 398/398/398
f 388/388/388 398/398/398 390/390/390
f 389/389/389 399/399/399 400/400/400
f 389/389/389 400/400/400 387/387/387
f 389/389/389 391/391/391 399/399/399
f 390/390/390 401/401/401 392/392/392
f 390/390/390 398/398/398 401/401/401
f 391/391/391 402/402/402 399/399/399
f 391/391/391 396/396/396 402/402/402
f 394/394/394 403/403/403 395/395/395
f 394/394/394 404/404/404 403/403/403
f 395/395/395 405/405/405 396/396/396
f 395/395/395 403/403/403 405/405/405
f 396/396/396 406/406/406 402/402/402
f 396/396/396 405/405/405 406/406/406
f 398/398/398 407/407/407 408/408/408
f 398/398/398 397/397/397 407/407/407
f 398/398/398 408/408/408 401/401/401
f 399/399/399 409/409/409 410/410/410
f 399/399/399 402/402/402 409/409/409
f 399/399/399 410/410/410 400/400/400
f 402/402/402 411/411/281 409/409/409
f 402/402/402 406/406/406 411/411/281
f 407/407/407 412/412/411 413/413/412
f 407/407/407 414/414/413 412/412/411
f 407/407/407 413/413/412 408/408/408
f 407/407/407 397/397/397 414/414/413
f 409/409/409 415/415/414 410/410/410
f 409/409/409 416/416/415 415/415/414
f 409/409/409 411/411/281 416/416/415
f 410/410/410 417/417/416 418/418/417
f 410/410/410 415/415/414 417/417/416
f 410/410/410 418/418/417 400/400/400
f 413/413/412 412/412/411 419/419/418
f 412/412/411 414/414/413 420/420/419
f 412/412/411 420/420/419 421/421/420
f 412/412/411 421/421/420 419/419/418
f 414/414/413 422/422/421 420/420/419
f 414/414/413 423/423/422 422/422/421
f 414/414/413 397/397/397 423/423/422
f 397/397/397 387/387/387 423/423/422
f 416/416/415 424/424/423 415/415/414
f 415/415/414 425/425/424 417/417/416
f 415/415/414 424/424/423 425/425/424
f 400/400/400 423/423/422 387/387/387
f 400/400/400 418/418/417 423/423/422
f 418/418/417 417/417/416 426/426/425
f 418/418/417 426/426/425 422/422/421
f 418/418/417 422/422/421 423/423/422
f 417/417/416 427/427/426 426/426/425
f 417/417/416 425/425/424 427/427/426
f 419/419/418 421/421/420 428/428/427
f 420/420/419 422/422/421 429/429/428
f 420/420/419 429/429/428 430/430/429
f 420/420/419 430/430/429 421/421/420
f 421/421/420 430/430/429 431/431/430
f 421/421/420 431/431/430 428/428/427
f 422/422/421 426/426/425 429/429/428
f 424/424/423 432/432/431 425/425/424
f 425/425/424 433/433/432 427/427/426
f 425/425/424 432/432/431 433/433/432
f 426/426/425 427/427/426 434/434/433
f 426/426/425 434/434/433 429/429/428
f 427/427/426 435/435/434 434/434/433
f 427/427/426 433/433/432 435/435/434
f 428/428/427 431/431/430 436/436/435
f 429/429/428 434/434/433 437/437/436
f 429/429/428 437/437/436 430/430/429
f 430/430/429 437/437/436 438/438/437
f 430/430/429 438/438/437 431/431/430
f 431/431/430 438/438/437 439/439/438
f 431/431/430 439/439/438 436/436/435
f 432/432/431 440/440/439 433/433/432
f 433/433/432 441/441/440 435/435/434
f 433/433/432 440/440/439 441/441/440
f 434/434/433 435/435/434 442/442/441
f 434/434/433 442/442/441 437/437/436
f 435/435/434 443/443/442 442/442/441
f 435/435/434 441/441/440 443/443/442
f 436/436/435 439/439/438 444/444/443
f 437/437/436 442/442/441 445/445/444
f 437/437/436 445/445/444 438/438/437
f 438/438/437 445/445/444 446/446/445
f 438/438/437 446/446/445 439/439/438
f 439/439/438 446/446/445 447/447/446
f 439/439/438 447/447/446 444/444/443
f 440/440/439 448/448/244 441/441/440
f 441/441/440 449/449/447 443/443/442
f 441/441/440 448/448/244 449/449/447
f 442/442/441 443/443/442 450/450/448
f 442/442/441 450/450/448 445/445/444
f 443/443/442 451/451/449 450/450/448
f 443/443/442 449/449/447 451/451/449
f 444/444/443 447/447/446 452/452/450
f 445/445/444 450/450/448 453/453/451
f 445/445/444 453/453/451 446/446/445
f 446/446/445 453/453/451 454/454/452
f 446/446/445 454/454/452 447/447/446
f 447/447/446 454/454/452 455/455/453
f 447/447/446 455/455/453 452/452/450
f 448/448/244 456/456/454 449/449/447
f 449/449/447 457/457/455 451/451/449
f 449/449/447 456/456/454 457/457/455
f 450/450/448 451/451/449 458/458/456
f 450/450/448 458/458/456 453/453/451
f 451/451/449 459/459/457 458/458/456
f 451/451/449 457/457/455 459/459/457
f 452/452/450 455/455/453 460/460/458
f 453/453/451 458/458/456 461/461/459
f 453/453/451 461/461/459 454/454/452
f 454/454/452 461/461/459 462/462/460
f 454/454/452 462/462/460 455/455/453
f 455/455/453 462/462/460 463/463/461
f 455/455/453 463/463/461 460/460/458
f 456/456/454 464/464/462 457/457/455
f 457/457/455 465/465/463 459/459/457
f 457/457/455 464/464/462 465/465/463
f 458/458/456 459/459/457 466/466/464
f 458/458/456 466/466/464 461/461/459
f 459/459/457 465/465/463 467/467/465
f 459/459/457 467/467/465 466/466/464
f 460/460/458 463/463/461 468/468/466
f 461/461/459 466/466/464 469/469/467
f 461/461/459 469/469/467 462/462/460
f 462/462/460 469/469/467 470/470/468
f 462/462/460 470/470/468 463/463/461
f 463/463/461 471/471/469 468/468/466
f 463/463/461 470/470/468 471/471/469
f 464/464/462 472/472/470 465/465/463
f 465/465/463 472/472/470 473/473/471
f 465/465/463 473/473/471 467/467/465
f 466/466/464 467/467/465 474/474/472
f 466/466/464 474/474/472 469/469/467
f 467/467/465 473/473/471 475/475/473
f 467/467/465 475/475/473 474/474/472
f 468/468/466 471/471/469 476/476/474
f 469/469/467 474/474/472 477/477/475
f 469/469/467 477/477/475 470/470/468
f 470/470/468 477/477/475 478/478/476
f 470/470/468 478/478/476 471/471/469
f 471/471/469 479/479/477 476/476/474
f 471/471/469 478/478/476 479/479/477
f 472/472/470 480/480/250 473/473/471
f 473/473/471 481/481/478 475/475/473
f 473/473/471 480/480/250 481/481/478
f 474/474/472 475/475/473 482/482/479
f 474/474/472 482/482/479 477/477/475
f 475/475/473 481/481/478 483/483/480
f 475/475/473 483/483/480 482/482/479
f 476/476/474 479/479/477 484/484/481
f 477/477/475 485/485/482 478/478/476
f 477/477/475 482/482/479 485/485/482
f 478/478/476 485/485/482 486/486/483
f 478/478/476 486/486/483 479/479/477
f 479/479/477 487/487/484 484/484/481
f 479/479/477 486/486/483 487/487/484
f 480/480/250 488/488/485 481/481/478
f 481/481/478 489/489/486 483/483/480
f 481/481/478 488/488/485 489/489/486
f 482/482/479 483/483/480 490/490/487
f 482/482/479 490/490/487 485/485/482
f 483/483/480 491/491/488 490/490/487
f 483/483/480 489/489/486 491/491/488
f 484/484/481 487/487/484 492/492/91
f 485/485/482 490/490/487 493/493/489
f 485/485/482 493/493/489 486/486/483
f 486/486/483 493/493/489 494/494/490
f 486/486/483 494/494/490 487/487/484
f 487/487/484 495/495/491 492/492/91
f 487/487/484 494/494/490 495/495/491
f 488/488/485 496/496/263 489/489/486
f 489/489/486 497/497/492 491/491/488
f 489/489/486 496/496/263 497/497/492
f 490/490/487 491/491/488 498/498/493
f 490/490/487 498/498/493 493/493/489
f 491/491/488 499/499/494 498/498/493
f 491/491/488 497/497/492 499/499/494
f 492/492/91 495/495/491 500/500/85
f 493/493/489 501/501/495 494/494/490
f 493/493/489 498/498/493 501/501/495
f 494/494/490 501/501/495 502/502/496
f 494/494/490 502/502/496 495/495/491
f 495/495/491 503/503/497 500/500/85
f 495/495/491 502/502/496 503/503/497
f 496/496/263 504/504/498 497/497/492
f 497/497/492 505/505/499 499/499/494
f 497/497/492 504/504/498 505/505/499
f 498/498/493 499/499/494 506/506/500
f 498/498/493 506/506/500 501/501/495
f 499/499/494 507/507/501 506/506/500
f 499/499/494 505/505/499 507/507/501
f 500/500/85 503/503/497 508/508/502
f 501/501/495 506/506/500 509/509/503
f 501/501/495 509/509/503 502/502/496
f 502/502/496 509/509/503 510/510/504
f 502/502/496 510/510/504 503/503/497
f 503/503/497 510/510/504 511/511/505
f 503/503/497 511/511/505 508/508/502
f 504/504/498 512/512/506 505/505/499
f 505/505/499 513/513/507 507/507/501
f 505/505/499 512/512/506 513/513/507
f 506/506/500 507/507/501 514/514/508
f 506/506/500 514/514/508 509/509/503
f 507/507/501 513/513/507 515/515/509
f 507/507/501 515/515/509 514/514/508
f 508/508/502 511/511/505 516/516/510
f 509/509/503 514/514/508 517/517/511
f 509/509/503 517/517/511 510/510/504
f 510/510/504 517/517/511 518/518/512
f 510/510/504 518/518/512 511/511/505
f 511/511/505 518/518/512 519/519/513
f 511/511/505 519/519/513 516/516/510
f 512/512/506 520/520/514 513/513/507
f 513/513/507 521/521/515 515/515/509
f 513/513/507 520/520/514 521/521/515
f 514/514/508 515/515/509 522/522/516
f 514/514/508 522/522/516 517/517/511
f 515/515/509 521/521/515 523/523/517
f 515/515/509 523/523/517 522/522/516
f 516/516/510 519/519/513 524/524/518
f 517/517/511 522/522/516 525/525/519
f 517/517/511 525/525/519 518/518/512
f 518/518/512 525/525/519 526/526/520
f 518/518/512 526/526/520 519/519/513
f 519/519/513 527/527/521 524/524/518
f 519/519/513 526/526/520 527/527/521
f 520/520/514 528/528/522 521/521/515
f 521/521/515 528/528/522 529/529/523
f 521/521/515 529/529/523 523/523/517
f 522/522/516 523/523/517 530/530/524
f 522/522/516 530/530/524 525/525/519
f 523/523/517 529/529/523 531/531/525
f 523/523/517 531/531/525 530/530/524
f 524/524/518 527/527/521 532/532/72
f 525/525/519 530/530/524 533/533/526
f 525/525/519 533/533/526 526/526/520
f 526/526/520 533/533/526 534/534/527
f 526/526/520 534/534/527 527/527/521
f 527/527/521 535/535/528 532/532/72
f 527/527/521 534/534/527 535/535/528
f 528/528/522 536/536/529 529/529/523
f 529/529/523 536/536/529 537/537/530
f 529/529/523 537/537/530 531/531/525
f 530/530/524 531/531/525 538/538/531
f 530/530/524 538/538/531 533/533/526
f 531/531/525 537/537/530 539/539/532
f 531/531/525 539/539/532 538/538/531
f 532/532/72 535/535/528 540/540/533
f 533/533/526 538/538/531 541/541/534
f 533/533/526 541/541/534 534/534/527
f 534/534/527 541/541/534 542/542/379
f 534/534/527 542/542/379 535/535/528
f 535/535/528 542/542/379 543/543/384
f 535/535/528 543/543/384 540/540/533
f 538/538/531 539/539/532 544/544/535
f 538/538/531 544/544/535 541/541/534
